<?xml version="1.0" encoding="UTF-8" standalone="no"?>
<svg width="1230px" height="1089px" viewBox="0 0 1230 1089" version="1.1" xmlns="http://www.w3.org/2000/svg" xmlns:xlink="http://www.w3.org/1999/xlink">
    <!-- Generator: Sketch 49.3 (51167) - http://www.bohemiancoding.com/sketch -->
    <title>cc_heart_blue</title>
    <desc>Created with Sketch.</desc>
    <defs></defs>
    <g id="Page-1" stroke="none" stroke-width="1" fill="none" fill-rule="evenodd">
        <g id="cc_heart_blue" fill="#FFFFFF" fill-rule="nonzero">
            <path d="M452.877,594 C424.997,594 403.887,583.73 389.587,563.34 C375.247,542.86 368.107,515.64 368.107,481.55 C368.107,406.56 396.357,369.11 452.877,369.11 C464.197,369.11 476.457,372.85 489.617,380.42 C502.777,387.97 513.907,401.29 522.937,420.21 L607.737,375.9 C573.817,314.6 517.677,283.88 439.297,283.88 C385.797,283.88 341.557,301.68 306.537,337.31 C271.467,372.85 253.927,420.93 253.927,481.55 C253.927,543.63 271.277,592.13 305.957,626.94 C340.577,661.82 386.167,679.2 442.687,679.2 C478.127,679.2 510.527,670.29 539.887,652.46 C569.277,634.75 592.287,610.31 608.877,579.22 L530.837,539.49 C515.777,575.81 489.807,594 452.877,594 Z" id="Shape"></path>
            <path d="M997.037,722.43 C828.697,893.96 620.737,988.51 614.727,991.26 C608.727,988.51 400.767,893.96 232.377,722.43 C140.337,628.7 -27.213,324.54 208.867,151.25 C271.357,105.39 330.147,88.76 382.597,88.76 C516.427,88.76 608.497,196.6 614.657,203.98 L614.657,204.21 L614.727,204.14 C614.767,204.14 614.807,204.21 614.847,204.21 L614.847,203.98 C620.967,196.6 713.077,88.76 846.827,88.76 C899.267,88.76 958.067,105.39 1020.587,151.25 C1256.697,324.54 1089.097,628.7 997.037,722.43 Z M1228.167,351.51 C1219.347,241.79 1165.547,147.76 1072.667,79.58 C1000.727,26.77 924.747,0 846.827,0 C747.747,0 667.517,44 614.727,84.14 C562.017,44 481.697,0 382.597,0 C304.707,0 228.727,26.77 156.767,79.58 C63.897,147.76 10.127,241.79 1.297,351.51 C-13.003,529.1 94.067,707.88 169.507,784.8 C350.007,968.64 570.087,1068.43 579.357,1072.62 L614.657,1088.42 L614.657,1088.51 L614.727,1088.42 L614.847,1088.51 L614.847,1088.42 L650.097,1072.62 C659.377,1068.43 879.417,968.64 1059.907,784.8 C1135.367,707.88 1242.447,529.1 1228.167,351.51 Z" id="Shape"></path>
            <path d="M817.987,594 C790.057,594 768.987,583.73 754.687,563.34 C740.377,542.86 733.247,515.64 733.247,481.55 C733.247,406.56 761.457,369.11 817.987,369.11 C830.017,369.11 842.637,372.85 855.807,380.42 C869.037,387.97 880.147,401.29 889.237,420.21 L972.827,375.9 C939.597,314.6 883.897,283.88 805.487,283.88 C752.017,283.88 707.757,301.68 672.727,337.31 C637.687,372.85 620.137,420.93 620.137,481.55 C620.137,543.63 637.277,592.13 671.627,626.94 C705.897,661.82 751.647,679.2 808.917,679.2 C843.557,679.2 875.607,670.29 905.057,652.46 C934.337,634.75 957.717,610.31 975.027,579.22 L895.957,539.49 C880.877,575.81 854.827,594 817.987,594 Z" id="Shape"></path>
        </g>
    </g>
</svg>