<?xml version="1.0" encoding="utf-8"?>
<!-- Generator: Adobe Illustrator 15.0.2, SVG Export Plug-In . SVG Version: 6.00 Build 0)  -->
<!DOCTYPE svg PUBLIC "-//W3C//DTD SVG 1.1//EN" "http://www.w3.org/Graphics/SVG/1.1/DTD/svg11.dtd">
<svg version="1.1" id="Layer_1" xmlns="http://www.w3.org/2000/svg" xmlns:xlink="http://www.w3.org/1999/xlink" x="0px" y="0px"
	 width="257px" height="257px" viewBox="0 0 257 257" enable-background="new 0 0 257 257" xml:space="preserve">
<circle fill-rule="evenodd" clip-rule="evenodd" fill="#FFFFFF" cx="128.5" cy="128.5" r="128.5"/>
<g>
	<path d="M108.62,49.17c-2.12,0-3.08-1.8-3.08-4.17s0.81-4.17,3.08-4.17c0.61,0,1.84,0.34,2.55,1.9l3.06-1.64
		c-1.3-2.42-3.52-3.38-6.09-3.38c-3.75,0-6.74,2.71-6.74,7.29c0,4.66,2.81,7.29,6.86,7.29c2.61,0,4.83-1.46,6.05-3.67l-2.86-1.49
		C110.82,48.7,109.85,49.17,108.62,49.17z"/>
	<path d="M121.55,52.29c2.6,0,4.82-1.46,6.05-3.67l-2.86-1.49c-0.64,1.57-1.61,2.04-2.83,2.04c-2.12,0-3.09-1.8-3.09-4.17
		s0.82-4.17,3.09-4.17c0.61,0,1.84,0.34,2.55,1.9l3.06-1.64c-1.3-2.42-3.52-3.38-6.1-3.38c-3.75,0-6.73,2.71-6.73,7.29
		C114.69,49.66,117.49,52.29,121.55,52.29z"/>
	<path d="M57.62,138.17c-2.12,0-3.08-1.8-3.08-4.17s0.81-4.17,3.08-4.17c0.61,0,1.84,0.34,2.55,1.9l3.06-1.64
		c-1.3-2.42-3.52-3.38-6.09-3.38c-3.75,0-6.74,2.71-6.74,7.29c0,4.66,2.81,7.29,6.86,7.29c2.61,0,4.83-1.46,6.05-3.67l-2.86-1.49
		C59.82,137.7,58.85,138.17,57.62,138.17z"/>
	<path d="M70.91,138.17c-2.12,0-3.09-1.8-3.09-4.17s0.82-4.17,3.09-4.17c0.61,0,1.84,0.34,2.55,1.9l3.06-1.64
		c-1.3-2.42-3.52-3.38-6.1-3.38c-3.75,0-6.73,2.71-6.73,7.29c0,4.66,2.8,7.29,6.86,7.29c2.6,0,4.82-1.46,6.05-3.67l-2.86-1.49
		C73.1,137.7,72.13,138.17,70.91,138.17z"/>
	<path d="M101.4,212c0,4.66,2.81,7.29,6.86,7.29c2.61,0,4.83-1.46,6.05-3.67l-2.86-1.49c-0.63,1.57-1.6,2.04-2.83,2.04
		c-2.12,0-3.08-1.8-3.08-4.17s0.81-4.17,3.08-4.17c0.61,0,1.84,0.34,2.55,1.9l3.06-1.64c-1.3-2.42-3.52-3.38-6.09-3.38
		C104.39,204.71,101.4,207.42,101.4,212z"/>
	<path d="M121.55,219.29c2.6,0,4.82-1.46,6.05-3.67l-2.86-1.49c-0.64,1.57-1.61,2.04-2.83,2.04c-2.12,0-3.09-1.8-3.09-4.17
		s0.82-4.17,3.09-4.17c0.61,0,1.84,0.34,2.55,1.9l3.06-1.64c-1.3-2.42-3.52-3.38-6.1-3.38c-3.75,0-6.73,2.71-6.73,7.29
		C114.69,216.66,117.49,219.29,121.55,219.29z"/>
	<path fill-rule="evenodd" clip-rule="evenodd" d="M206.97,206.46c-3.72,3.73-8.52,5.73-13.44,5.73c-4.98,0-9.65-2-13.25-5.67
		c-3.6-3.67-5.62-8.5-5.62-13.52c0-5.09,2.02-9.92,5.62-13.65c3.53-3.67,8.08-5.6,13.25-5.6c5.18,0,9.78,2,13.38,5.66
		c3.53,3.61,5.43,8.38,5.43,13.59C212.34,198.28,210.51,202.92,206.97,206.46z M63.53,153.19c-4.98,0-9.65-2-13.25-5.67
		c-3.6-3.67-5.62-8.5-5.62-13.52c0-5.09,2.02-9.92,5.62-13.65c3.53-3.67,8.08-5.6,13.25-5.6c5.18,0,9.78,2,13.38,5.66
		c3.53,3.61,5.43,8.38,5.43,13.59c0,5.28-1.83,9.92-5.37,13.46C73.25,151.19,68.45,153.19,63.53,153.19z M114.53,192.75
		c5.18,0,9.78,2,13.38,5.66c3.53,3.61,5.43,8.38,5.43,13.59c0,5.28-1.83,9.92-5.37,13.46c-3.72,3.73-8.52,5.73-13.44,5.73
		c-4.98,0-9.65-2-13.25-5.67c-3.6-3.67-5.62-8.5-5.62-13.52c0-5.09,2.02-9.92,5.62-13.65c0.1-0.1,0.2-0.18,0.3-0.28
		c0.04-0.03,0.08-0.04,0.12-0.07c0.12-0.1,0.22-0.21,0.31-0.34C105.43,194.45,109.7,192.75,114.53,192.75z M95.66,45
		c0-5.09,2.02-9.92,5.62-13.65c3.53-3.67,8.08-5.6,13.25-5.6c5.18,0,9.78,2,13.38,5.66c3.53,3.61,5.43,8.38,5.43,13.59
		c0,5.28-1.83,9.92-5.37,13.46c-3.72,3.73-8.52,5.73-13.44,5.73c-4.98,0-9.65-2-13.25-5.67C97.68,54.85,95.66,50.02,95.66,45z
		 M180.28,60.35c3.53-3.67,8.08-5.6,13.25-5.6c5.18,0,9.78,2,13.38,5.66c3.53,3.61,5.43,8.38,5.43,13.59
		c0,5.28-1.83,9.92-5.37,13.46c-3.72,3.73-8.52,5.73-13.44,5.73c-4.98,0-9.65-2-13.25-5.67c-3.6-3.67-5.62-8.5-5.62-13.52
		C174.66,68.91,176.68,64.08,180.28,60.35z M193.47,169.5c-6.31,0-11.86,2.38-16.16,6.82c-1.79,1.86-3.23,3.95-4.33,6.18
		l-89.86-36.11c2.21-3.6,3.38-7.81,3.38-12.39c0-4.98-1.41-9.6-4.09-13.5l90.36-36.39c1.11,2.33,2.59,4.51,4.48,6.44
		c4.42,4.5,10.16,6.95,16.22,6.95c6.06,0,11.92-2.45,16.47-7.02c4.29-4.31,6.56-10.04,6.56-16.48c0-6.37-2.27-12.17-6.63-16.61
		c-4.41-4.51-10.09-6.89-16.4-6.89c-6.31,0-11.86,2.38-16.16,6.82c-4.41,4.58-6.81,10.5-6.81,16.68c0,2.33,0.33,4.6,0.96,6.76
		l-91.43,36.81l-0.16-0.18c-3.03-3.1-6.67-5.17-10.7-6.17l36.54-44.52c2.76,1.18,5.72,1.8,8.76,1.8c6.06,0,11.92-2.45,16.47-7.02
		c4.29-4.31,6.56-10.04,6.56-16.48c0-6.37-2.27-12.17-6.63-16.61c-4.41-4.51-10.09-6.89-16.4-6.89c-6.31,0-11.86,2.38-16.16,6.82
		C93.9,32.9,91.5,38.82,91.5,45c0,6.25,2.33,12.04,6.75,16.55c1.3,1.32,2.72,2.46,4.22,3.42l-37.43,45.61
		c-0.52-0.04-1.04-0.08-1.57-0.08c-6.31,0-11.86,2.38-16.16,6.82c-4.41,4.58-6.81,10.5-6.81,16.68c0,6.25,2.33,12.04,6.75,16.55
		c4.42,4.5,10.16,6.95,16.22,6.95c0.74,0,1.47-0.04,2.2-0.11l32.04,38.62c-4.01,4.47-6.21,10.11-6.21,15.99
		c0,6.25,2.33,12.04,6.75,16.55c4.42,4.5,10.16,6.95,16.22,6.95c6.06,0,11.92-2.45,16.47-7.02c4.29-4.31,6.56-10.04,6.56-16.48
		c0-6.37-2.27-12.17-6.63-16.61c-4.41-4.51-10.09-6.89-16.4-6.89c-5.38,0-10.19,1.74-14.16,5L69.7,156.61
		c3.76-1.09,7.28-3.16,10.24-6.13c0.35-0.35,0.66-0.72,0.98-1.09l90.7,36.44c-0.73,2.31-1.12,4.72-1.12,7.17
		c0,6.25,2.33,12.04,6.75,16.55c4.42,4.5,10.16,6.95,16.22,6.95c6.06,0,11.92-2.45,16.47-7.02c4.29-4.31,6.56-10.04,6.56-16.48
		c0-6.37-2.27-12.17-6.63-16.61C205.46,171.88,199.78,169.5,193.47,169.5z"/>
	<path d="M188.62,196.17c-2.12,0-3.08-1.8-3.08-4.17s0.81-4.17,3.08-4.17c0.61,0,1.84,0.34,2.55,1.9l3.06-1.64
		c-1.3-2.42-3.52-3.38-6.09-3.38c-3.75,0-6.74,2.71-6.74,7.29c0,4.66,2.81,7.29,6.86,7.29c2.61,0,4.83-1.46,6.05-3.67l-2.86-1.49
		C190.82,195.7,189.85,196.17,188.62,196.17z"/>
	<path d="M201.91,187.83c0.61,0,1.84,0.34,2.55,1.9l3.06-1.64c-1.3-2.42-3.52-3.38-6.1-3.38c-3.75,0-6.73,2.71-6.73,7.29
		c0,4.66,2.8,7.29,6.86,7.29c2.6,0,4.82-1.46,6.05-3.67l-2.86-1.49c-0.64,1.57-1.61,2.04-2.83,2.04c-2.12,0-3.09-1.8-3.09-4.17
		S199.64,187.83,201.91,187.83z"/>
	<path d="M187.26,81.29c2.61,0,4.83-1.46,6.05-3.67l-2.86-1.49c-0.63,1.57-1.6,2.04-2.83,2.04c-2.12,0-3.08-1.8-3.08-4.17
		s0.81-4.17,3.08-4.17c0.61,0,1.84,0.34,2.55,1.9l3.06-1.64c-1.3-2.42-3.52-3.38-6.09-3.38c-3.75,0-6.74,2.71-6.74,7.29
		C180.4,78.66,183.21,81.29,187.26,81.29z"/>
	<path d="M200.55,81.29c2.6,0,4.82-1.46,6.05-3.67l-2.86-1.49c-0.64,1.57-1.61,2.04-2.83,2.04c-2.12,0-3.09-1.8-3.09-4.17
		s0.82-4.17,3.09-4.17c0.61,0,1.84,0.34,2.55,1.9l3.06-1.64c-1.3-2.42-3.52-3.38-6.1-3.38c-3.75,0-6.73,2.71-6.73,7.29
		C193.69,78.66,196.49,81.29,200.55,81.29z"/>
</g>
</svg>
