<?xml version="1.0" encoding="utf-8"?>
<!-- Generator: Adobe Illustrator 15.0.2, SVG Export Plug-In . SVG Version: 6.00 Build 0)  -->
<!DOCTYPE svg PUBLIC "-//W3C//DTD SVG 1.1//EN" "http://www.w3.org/Graphics/SVG/1.1/DTD/svg11.dtd">
<svg version="1.1" id="Layer_1" xmlns="http://www.w3.org/2000/svg" xmlns:xlink="http://www.w3.org/1999/xlink" x="0px" y="0px"
	 width="257px" height="257px" viewBox="0 0 257 257" enable-background="new 0 0 257 257" xml:space="preserve">
<g>
	<circle fill-rule="evenodd" clip-rule="evenodd" fill="#FFFFFF" cx="128.5" cy="128.5" r="128.5"/>
	<g>
		<path d="M131.42,99.37v-5.81h2.92c4.83,0,8.75-3.91,8.75-8.72s-3.92-8.71-8.75-8.71h-11.68c-1.61,0-2.91-1.3-2.91-2.91
			c0-1.6,1.3-2.9,2.91-2.9h11.68c1.61,0,2.92,1.3,2.92,2.9h5.83c0-4.81-3.92-8.71-8.75-8.71h-2.92V58.7h-5.84v5.81h-2.92
			c-4.83,0-8.75,3.9-8.75,8.71c0,4.82,3.92,8.72,8.75,8.72h11.68c1.61,0,2.92,1.3,2.92,2.9c0,1.61-1.31,2.91-2.92,2.91h-11.68
			c-1.61,0-2.91-1.3-2.91-2.91h-5.84c0,4.81,3.92,8.72,8.75,8.72h2.92v5.81H131.42z"/>
		<path fill-rule="evenodd" clip-rule="evenodd" d="M99.32,79.03c0-16.04,13.06-29.05,29.18-29.05s29.18,13.01,29.18,29.05
			c0,16.04-13.06,29.05-29.18,29.05S99.32,95.07,99.32,79.03z M163.52,79.03c0-19.25-15.68-34.86-35.02-34.86
			S93.48,59.78,93.48,79.03s15.68,34.86,35.02,34.86S163.52,98.28,163.52,79.03z"/>
		<path fill-rule="evenodd" clip-rule="evenodd" d="M202.66,216.73c-2.67,2.71-6.11,4.15-9.64,4.15c-3.57,0-6.92-1.44-9.5-4.1
			c-2.58-2.65-4.03-6.15-4.03-9.78c0-3.68,1.45-7.17,4.03-9.87c2.53-2.66,5.79-4.06,9.5-4.06s7.02,1.45,9.6,4.1
			c2.53,2.61,3.89,6.06,3.89,9.83C206.51,210.82,205.2,214.17,202.66,216.73z M87.64,154.56v-5.81h81.72v5.81H87.64z M142.01,207
			c0,3.82-1.31,7.17-3.85,9.73c-2.67,2.71-6.11,4.15-9.64,4.15c-3.57,0-6.92-1.44-9.5-4.1c-2.58-2.65-4.03-6.15-4.03-9.78
			c0-3.68,1.45-7.17,4.03-9.87c2.53-2.66,5.79-4.06,9.5-4.06s7.02,1.45,9.6,4.1C140.65,199.78,142.01,203.23,142.01,207z
			 M87.64,79.03c0-22.46,18.3-40.66,40.86-40.66c22.57,0,40.86,18.2,40.86,40.66c0,22.46-18.29,40.67-40.86,40.67
			C105.94,119.7,87.64,101.49,87.64,79.03z M73.66,216.73c-2.67,2.71-6.11,4.15-9.64,4.15c-3.57,0-6.92-1.44-9.5-4.1
			c-2.58-2.65-4.03-6.15-4.03-9.78c0-3.68,1.45-7.17,4.03-9.87c2.53-2.66,5.79-4.06,9.5-4.06s7.02,1.45,9.6,4.1
			c2.53,2.61,3.89,6.06,3.89,9.83C77.51,210.82,76.2,214.17,73.66,216.73z M204.75,194.98c-3.17-3.26-7.25-4.98-11.77-4.98
			c-4.53,0-8.51,1.72-11.59,4.94c-2.44,2.54-4.01,5.66-4.61,9h-22.01V183.6c0-3.21-2.62-5.81-5.84-5.81h-17.51v-17.43h32.1v29.05
			h-2.92v5.81h2.92c3.22,0,5.84-2.6,5.84-5.81v-29.05h2.92c1.61,0,2.91-1.3,2.91-2.9v-11.62c0-1.6-1.3-2.9-2.91-2.9h-40.86v-17.58
			c25.74-1.6,45.29-23.67,43.68-49.29c-1.61-25.61-23.78-45.08-49.52-43.48C99.84,34.2,80.29,56.26,81.9,81.88
			c1.47,23.38,20.19,42.02,43.68,43.48v17.58H84.72c-1.61,0-2.91,1.3-2.91,2.9v11.62c0,1.6,1.3,2.9,2.91,2.9h2.92v29.05
			c0,3.21,2.62,5.81,5.84,5.81h2.92v-5.81h-2.92v-29.05h32.1v17.43h-17.51c-3.22,0-5.84,2.6-5.84,5.81v20.34H80.24
			c-0.57-3.39-2.08-6.47-4.49-8.96c-3.17-3.26-7.25-4.98-11.77-4.98c-4.53,0-8.51,1.72-11.59,4.94c-3.17,3.3-4.89,7.59-4.89,12.06
			c0,4.52,1.67,8.71,4.84,11.97c3.17,3.26,7.29,5.03,11.64,5.03c4.34,0,8.55-1.77,11.81-5.08c2.46-2.49,3.98-5.63,4.49-9.17h21.95
			c1.54,0.04,3.02-0.53,4.12-1.6c1.09-1.14,1.7-2.64,1.72-4.21V183.6h17.51v6.66c-3.33,0.59-6.29,2.17-8.69,4.68
			c-3.17,3.3-4.89,7.59-4.89,12.06c0,4.52,1.67,8.71,4.84,11.97c3.17,3.26,7.29,5.03,11.64,5.03c4.34,0,8.55-1.77,11.81-5.08
			c3.08-3.12,4.71-7.26,4.71-11.92c0-4.61-1.63-8.8-4.75-12.02c-2.46-2.53-5.48-4.12-8.83-4.71v-6.67h17.51v20.34
			c0.02,1.57,0.63,3.07,1.72,4.21c1.1,1.07,2.58,1.64,4.12,1.6h21.96c0.54,3.46,2.1,6.64,4.61,9.22c3.17,3.26,7.29,5.03,11.64,5.03
			c4.34,0,8.55-1.77,11.81-5.08c3.08-3.12,4.71-7.26,4.71-11.92C209.5,202.39,207.87,198.2,204.75,194.98z"/>
		<path d="M188.78,210.01c-1.52,0-2.21-1.3-2.21-3.01s0.58-3.01,2.21-3.01c0.44,0,1.32,0.24,1.83,1.37l2.2-1.19
			c-0.93-1.75-2.53-2.44-4.37-2.44c-2.7,0-4.84,1.96-4.84,5.27c0,3.37,2.02,5.27,4.93,5.27c1.86,0,3.46-1.05,4.33-2.65l-2.05-1.08
			C190.36,209.67,189.66,210.01,188.78,210.01z"/>
		<path d="M198.31,210.01c-1.51,0-2.21-1.3-2.21-3.01s0.59-3.01,2.21-3.01c0.44,0,1.32,0.24,1.84,1.37l2.19-1.19
			c-0.93-1.75-2.52-2.44-4.37-2.44c-2.69,0-4.83,1.96-4.83,5.27c0,3.37,2.01,5.27,4.92,5.27c1.87,0,3.46-1.05,4.34-2.65l-2.05-1.08
			C199.89,209.67,199.19,210.01,198.31,210.01z"/>
		<path d="M124.28,210.01c-1.52,0-2.21-1.3-2.21-3.01s0.58-3.01,2.21-3.01c0.44,0,1.32,0.24,1.83,1.37l2.2-1.19
			c-0.93-1.75-2.53-2.44-4.37-2.44c-2.7,0-4.84,1.96-4.84,5.27c0,3.37,2.02,5.27,4.93,5.27c1.86,0,3.46-1.05,4.33-2.65l-2.05-1.08
			C125.86,209.67,125.16,210.01,124.28,210.01z"/>
		<path d="M133.56,212.27c1.87,0,3.46-1.05,4.34-2.65l-2.05-1.08c-0.46,1.13-1.16,1.47-2.04,1.47c-1.51,0-2.21-1.3-2.21-3.01
			s0.59-3.01,2.21-3.01c0.44,0,1.32,0.24,1.84,1.37l2.19-1.19c-0.93-1.75-2.52-2.44-4.37-2.44c-2.69,0-4.83,1.96-4.83,5.27
			C128.64,210.37,130.65,212.27,133.56,212.27z"/>
		<path d="M59.78,210.01c-1.52,0-2.21-1.3-2.21-3.01s0.58-3.01,2.21-3.01c0.44,0,1.32,0.24,1.83,1.37l2.2-1.19
			c-0.93-1.75-2.53-2.44-4.37-2.44c-2.7,0-4.84,1.96-4.84,5.27c0,3.37,2.02,5.27,4.93,5.27c1.86,0,3.46-1.05,4.33-2.65l-2.05-1.08
			C61.36,209.67,60.66,210.01,59.78,210.01z"/>
		<path d="M69.31,210.01c-1.51,0-2.21-1.3-2.21-3.01s0.59-3.01,2.21-3.01c0.44,0,1.32,0.24,1.84,1.37l2.19-1.19
			c-0.93-1.75-2.52-2.44-4.37-2.44c-2.69,0-4.83,1.96-4.83,5.27c0,3.37,2.01,5.27,4.92,5.27c1.87,0,3.46-1.05,4.34-2.65l-2.05-1.08
			C70.89,209.67,70.19,210.01,69.31,210.01z"/>
	</g>
</g>
</svg>
