<?xml version="1.0" encoding="utf-8"?>
<!-- Generator: Adobe Illustrator 15.0.2, SVG Export Plug-In . SVG Version: 6.00 Build 0)  -->
<!DOCTYPE svg PUBLIC "-//W3C//DTD SVG 1.1//EN" "http://www.w3.org/Graphics/SVG/1.1/DTD/svg11.dtd">
<svg version="1.1" id="Layer_1" xmlns="http://www.w3.org/2000/svg" xmlns:xlink="http://www.w3.org/1999/xlink" x="0px" y="0px"
	 width="205.998px" height="199.005px" viewBox="0 0 205.998 199.005" enable-background="new 0 0 205.998 199.005"
	 xml:space="preserve">
<g>
	<g>
		<g>
			<path fill-rule="evenodd" clip-rule="evenodd" fill="#01AED1" d="M96.4,17.54c21.65,0,40.93,8.24,55.99,23.4
				c14.78,14.88,22.71,34.55,22.71,56.08c0,21.8-7.66,40.94-22.45,55.56c-15.58,15.41-35.65,23.65-56.25,23.65
				c-20.87,0-40.41-8.24-55.47-23.39c-15.05-15.15-23.5-35.08-23.5-55.82c0-21,8.45-40.93,23.5-56.35
				C55.72,25.52,74.74,17.54,96.4,17.54z M96.13,0C69.72,0,46.48,9.84,28.52,28.18C10.03,47.05,0,71.5,0,97.02
				c0,25.79,9.77,49.71,28.26,68.31c18.48,18.61,42.52,28.71,67.87,28.71c25.36,0,49.92-10.1,68.93-28.97
				c17.96-17.81,27.47-41.47,27.47-68.05c0-26.31-9.51-50.24-27.73-68.58C146.31,9.84,122.54,0,96.13,0z"/>
			<path fill-rule="evenodd" clip-rule="evenodd" fill="#01AED1" d="M95.15,80.9c-5.44-9.99-14.73-13.97-25.52-13.97
				c-15.69,0-28.19,11.17-28.19,30.09c0,19.24,11.75,30.09,28.73,30.09c10.89,0,20.18-6.02,25.31-15.15l-11.96-6.13
				c-2.68,6.45-6.73,8.39-11.86,8.39c-8.86,0-12.92-7.42-12.92-17.2s3.42-17.2,12.92-17.2c2.56,0,7.69,1.4,10.68,7.85L95.15,80.9z"
				/>
			<path fill-rule="evenodd" clip-rule="evenodd" fill="#01AED1" d="M150.76,80.9c-5.44-9.99-14.73-13.97-25.52-13.97
				c-15.69,0-28.19,11.17-28.19,30.09c0,19.24,11.75,30.09,28.73,30.09c10.89,0,20.18-6.02,25.3-15.15l-11.96-6.13
				c-2.66,6.45-6.72,8.39-11.85,8.39c-8.86,0-12.92-7.42-12.92-17.2s3.42-17.2,12.92-17.2c2.56,0,7.69,1.4,10.68,7.85L150.76,80.9z"
				/>
		</g>
	</g>
	<path fill-rule="evenodd" clip-rule="evenodd" fill="#01AED1" d="M157.08,159.49l9.34-9.33c0.86-0.86,2.54-0.57,3.76,0.64
		l34.68,34.63c1.22,1.21,1.5,2.89,0.64,3.75l-9.34,9.33c-0.86,0.86-2.54,0.57-3.75-0.64l-34.69-34.63
		C156.51,162.03,156.22,160.35,157.08,159.49z"/>
</g>
</svg>
