<?xml version="1.0" encoding="UTF-8" standalone="no"?>
<svg width="206px" height="199px" viewBox="0 0 206 199" version="1.1" xmlns="http://www.w3.org/2000/svg" xmlns:xlink="http://www.w3.org/1999/xlink">
    <!-- Generator: Sketch 49.2 (51160) - http://www.bohemiancoding.com/sketch -->
    <title>cc_search</title>
    <desc>Created with Sketch.</desc>
    <defs></defs>
    <g id="Page-1" stroke="none" stroke-width="1" fill="none" fill-rule="evenodd">
        <g id="cc_search" fill="#18C2CA">
            <g id="Group">
                <path d="M96.4,17.54 C118.05,17.54 137.33,25.78 152.39,40.94 C167.17,55.82 175.1,75.49 175.1,97.02 C175.1,118.82 167.44,137.96 152.65,152.58 C137.07,167.99 117,176.23 96.4,176.23 C75.53,176.23 55.99,167.99 40.93,152.84 C25.88,137.69 17.43,117.76 17.43,97.02 C17.43,76.02 25.88,56.09 40.93,40.67 C55.72,25.52 74.74,17.54 96.4,17.54 Z M96.13,0 C69.72,0 46.48,9.84 28.52,28.18 C10.03,47.05 0,71.5 0,97.02 C0,122.81 9.77,146.73 28.26,165.33 C46.74,183.94 70.78,194.04 96.13,194.04 C121.49,194.04 146.05,183.94 165.06,165.07 C183.02,147.26 192.53,123.6 192.53,97.02 C192.53,70.71 183.02,46.78 164.8,28.44 C146.31,9.84 122.54,0 96.13,0 Z" id="Shape"></path>
                <path d="M95.15,80.9 C89.71,70.91 80.42,66.93 69.63,66.93 C53.94,66.93 41.44,78.1 41.44,97.02 C41.44,116.26 53.19,127.11 70.17,127.11 C81.06,127.11 90.35,121.09 95.48,111.96 L83.52,105.83 C80.84,112.28 76.79,114.22 71.66,114.22 C62.8,114.22 58.74,106.8 58.74,97.02 C58.74,87.24 62.16,79.82 71.66,79.82 C74.22,79.82 79.35,81.22 82.34,87.67 L95.15,80.9 Z" id="Shape"></path>
                <path d="M150.76,80.9 C145.32,70.91 136.03,66.93 125.24,66.93 C109.55,66.93 97.05,78.1 97.05,97.02 C97.05,116.26 108.8,127.11 125.78,127.11 C136.67,127.11 145.96,121.09 151.08,111.96 L139.12,105.83 C136.46,112.28 132.4,114.22 127.27,114.22 C118.41,114.22 114.35,106.8 114.35,97.02 C114.35,87.24 117.77,79.82 127.27,79.82 C129.83,79.82 134.96,81.22 137.95,87.67 L150.76,80.9 Z" id="Shape"></path>
            </g>
            <path d="M157.08,159.49 L166.42,150.16 C167.28,149.3 168.96,149.59 170.18,150.8 L204.86,185.43 C206.08,186.64 206.36,188.32 205.5,189.18 L196.16,198.51 C195.3,199.37 193.62,199.08 192.41,197.87 L157.72,163.24 C156.51,162.03 156.22,160.35 157.08,159.49 Z" id="Shape"></path>
        </g>
    </g>
</svg>