<?xml version="1.0" encoding="UTF-8" standalone="no"?>
<svg width="100px" height="100px" viewBox="0 0 100 100" version="1.1" xmlns="http://www.w3.org/2000/svg" xmlns:xlink="http://www.w3.org/1999/xlink">
    <!-- Generator: Sketch 49.3 (51167) - http://www.bohemiancoding.com/sketch -->
    <title>Shape</title>
    <desc>Created with Sketch.</desc>
    <defs></defs>
    <g id="Page-1" stroke="none" stroke-width="1" fill="none" fill-rule="evenodd">
        <g id="cc_white" fill="#FFFFFF" fill-rule="nonzero">
            <path d="M33.7642857,68.8071429 C39.4547619,68.8071429 44.2357143,66.8714286 48.1071429,63 C48.6261905,62.3285714 48.6809524,61.6595238 48.2714286,60.9928571 L45.7571429,56.4142857 C45.5333334,55.9285714 45.0880952,55.6119048 44.4214286,55.4642857 C43.8261905,55.3880952 43.3238095,55.5928571 42.9142857,56.0785714 L42.6928571,56.2428571 C42.5452381,56.3904762 42.3309524,56.5761905 42.05,56.8 C41.7690476,57.0238095 41.4428571,57.2666666 41.0714286,57.5285714 C40.7,57.7904762 40.2619048,58.0595238 39.7571429,58.3357143 C39.2523809,58.6119048 38.7214286,58.8619048 38.1642857,59.0857143 C37.6071429,59.3095238 36.9833334,59.4857143 36.2928571,59.6142857 C35.6023809,59.7428571 34.9047619,59.8071429 34.2,59.8071429 C31.3714286,59.8071429 29.0452381,58.8761905 27.2214286,57.0142857 C25.3976191,55.1523809 24.4857143,52.7904762 24.4857143,49.9285714 C24.4857143,47.1 25.3785714,44.7666666 27.1642857,42.9285714 C28.95,41.0904762 31.2190476,40.1690476 33.9714286,40.1642857 C35.3476191,40.1642857 36.6785714,40.4238095 37.9642857,40.9428571 C39.25,41.4619048 40.1904762,41.9833334 40.7857143,42.5071429 L41.6785714,43.2857143 C42.0880952,43.6952381 42.5714286,43.8809524 43.1285714,43.8428571 C43.7238095,43.7666666 44.1690476,43.5071429 44.4642857,43.0642857 L47.4214286,38.7142857 C47.9071429,37.9714286 47.8690476,37.2452381 47.3071429,36.5357143 C47.1976191,36.3880952 46.9928571,36.1642857 46.6928571,35.8642857 C46.3928571,35.5642857 45.8357143,35.1261905 45.0214286,34.55 C44.2071429,33.9738095 43.3047619,33.4523809 42.3142857,32.9857143 C41.3238095,32.5190476 40.0690476,32.1 38.55,31.7285714 C37.0309524,31.3571429 35.4309524,31.1714286 33.75,31.1714286 C28.2452381,31.1714286 23.6690476,32.9666666 20.0214286,36.5571429 C16.3738095,40.1476191 14.55,44.6214286 14.55,49.9785714 C14.55,55.4119048 16.3547619,59.9047619 19.9642857,63.4571429 C23.5738095,67.0095238 28.1690476,68.7857143 33.75,68.7857143 L33.7642857,68.8071429 Z M68.9142857,68.8071429 C74.6047621,68.8071429 79.3857143,66.8714286 83.2571429,63 C83.7761907,62.3285714 83.85,61.6595238 83.4785714,60.9928571 L80.9642857,56.4142857 C80.6690479,55.8952381 80.2047621,55.5785714 79.5714286,55.4642857 C78.9761907,55.3880952 78.4738093,55.5928571 78.0642857,56.0785714 L77.8428571,56.2428571 C77.6952379,56.3904762 77.4809521,56.5761905 77.2,56.8 C76.9190479,57.0238095 76.5928571,57.2666666 76.2214286,57.5285714 C75.85,57.7904762 75.411905,58.0595238 74.9071429,58.3357143 C74.4023807,58.6119048 73.8714286,58.8619048 73.3142857,59.0857143 C72.7571429,59.3095238 72.1333336,59.4857143 71.4428571,59.6142857 C70.7523809,59.7428571 70.0547619,59.8071429 69.35,59.8071429 C66.5214286,59.8071429 64.1952381,58.8761905 62.3714286,57.0142857 C60.5476191,55.1523809 59.6357143,52.7904762 59.6357143,49.9285714 C59.6357143,47.1 60.5285714,44.7666666 62.3142857,42.9285714 C64.1,41.0904762 66.3690476,40.1690476 69.1214286,40.1642857 C70.4976191,40.1642857 71.8285714,40.4238095 73.1142857,40.9428571 C74.4,41.4619048 75.3404764,41.9833334 75.9357143,42.5071429 L76.8285714,43.2857143 C77.238095,43.6952381 77.7214286,43.8809524 78.2785714,43.8428571 C78.8738093,43.7666666 79.3190479,43.5071429 79.6142857,43.0642857 L82.5714286,38.7142857 C83.0571429,37.9714286 83.0190479,37.2452381 82.4571429,36.5357143 C82.3476193,36.3880952 82.1428571,36.1642857 81.8428571,35.8642857 C81.5428571,35.5642857 80.9857143,35.1261905 80.1714286,34.55 C79.3571429,33.9738095 78.4547621,33.4523809 77.4642857,32.9857143 C76.4738093,32.5190476 75.2190479,32.1 73.7,31.7285714 C72.1809521,31.3571429 70.5809524,31.1714286 68.9,31.1714286 C63.4333334,31.1714286 58.8666666,32.9666666 55.2,36.5571429 C51.5333334,40.1476191 49.7,44.6214286 49.7,49.9785714 C49.7,55.4119048 51.5047619,59.9047619 55.1142857,63.4571429 C58.7238095,67.0095238 63.3190476,68.7857143 68.9,68.7857143 L68.9142857,68.8071429 Z M50,8.92857143 C44.4190476,8.92857143 39.1,10.0166666 34.0428571,12.1928571 C28.9857143,14.3690476 24.6238095,17.2904762 20.9571429,20.9571429 C17.2904762,24.6238095 14.3690476,28.9857143 12.1928571,34.0428571 C10.0166666,39.1 8.92857143,44.4190476 8.92857143,50 C8.92857143,55.5809524 10.0166666,60.9 12.1928571,65.9571429 C14.3690476,71.0142857 17.2904762,75.3761907 20.9571429,79.0428571 C24.6238095,82.7095236 28.9857143,85.6309521 34.0428571,87.8071429 C39.1,89.9833336 44.4190476,91.0714286 50,91.0714286 C55.5809524,91.0714286 60.9,89.9833336 65.9571429,87.8071429 C71.0142857,85.6309521 75.3761907,82.7095236 79.0428571,79.0428571 C82.7095236,75.3761907 85.6309521,71.0142857 87.8071429,65.9571429 C89.9833336,60.9 91.0714286,55.5809524 91.0714286,50 C91.0714286,44.4190476 89.9833336,39.1 87.8071429,34.0428571 C85.6309521,28.9857143 82.7095236,24.6238095 79.0428571,20.9571429 C75.3761907,17.2904762 71.0142857,14.3690476 65.9571429,12.1928571 C60.9,10.0166666 55.5809524,8.92857143 50,8.92857143 Z M50,0 C56.7714286,0 63.2452381,1.32142857 69.4214286,3.96428571 C75.5976193,6.60714286 80.9166664,10.1595238 85.3785714,14.6214286 C89.8404764,19.0833334 93.3928571,24.4023809 96.0357143,30.5785714 C98.6785714,36.7547619 100,43.2285714 100,50 C100,56.7714286 98.6785714,63.2452381 96.0357143,69.4214286 C93.3928571,75.5976193 89.8404764,80.9166664 85.3785714,85.3785714 C80.9166664,89.8404764 75.5976193,93.3928571 69.4214286,96.0357143 C63.2452381,98.6785714 56.7714286,100 50,100 C43.2285714,100 36.7547619,98.6785714 30.5785714,96.0357143 C24.4023809,93.3928571 19.0833334,89.8404764 14.6214286,85.3785714 C10.1595238,80.9166664 6.60714286,75.5976193 3.96428571,69.4214286 C1.32142857,63.2452381 6.70363233e-15,56.7714286 8.8817842e-16,50 C-4.92727552e-15,43.2285714 1.32142857,36.7547619 3.96428571,30.5785714 C6.60714286,24.4023809 10.1595238,19.0833334 14.6214286,14.6214286 C19.0833334,10.1595238 24.4023809,6.60714286 30.5785714,3.96428571 C36.7547619,1.32142857 43.2285714,1.82393783e-14 50,3.96508223e-15 Z" id="Shape"></path>
        </g>
    </g>
</svg>