<?xml version="1.0" encoding="utf-8"?>
<!-- Generator: Adobe Illustrator 15.0.2, SVG Export Plug-In . SVG Version: 6.00 Build 0)  -->
<!DOCTYPE svg PUBLIC "-//W3C//DTD SVG 1.1//EN" "http://www.w3.org/Graphics/SVG/1.1/DTD/svg11.dtd">
<svg version="1.1" id="Layer_1" xmlns="http://www.w3.org/2000/svg" xmlns:xlink="http://www.w3.org/1999/xlink" x="0px" y="0px"
	 width="126px" height="72px" viewBox="0 0 126 72" enable-background="new 0 0 126 72" xml:space="preserve">
<g>
	<rect fill="#E81C24" width="29.64" height="72"/>
	<rect x="96.36" fill="#E81C24" width="29.64" height="72"/>
	<path fill="#E81C24" d="M63,9.34l-4.37,8.31c-0.5,0.91-1.38,0.81-2.28,0.31l-3.16-1.67l2.36,12.78c0.5,2.34-1.1,2.34-1.88,1.33
		l-5.52-6.31l-0.9,3.2c-0.1,0.42-0.55,0.87-1.24,0.76l-6.98-1.51l1.83,6.81c0.4,1.52,0.7,2.15-0.39,2.55l-2.5,1.18L50,47.05
		c0.47,0.39,0.72,1.05,0.54,1.67l-1.05,3.53l11.98-1.42c0.37,0,0.99,0.32,0.98,0.75L61.9,64.49h2.02l-0.33-12.88
		c0-0.42,0.56-0.78,0.92-0.78l11.99,1.42l-1.05-3.53c-0.17-0.62,0.08-1.28,0.55-1.67l12.02-9.97l-2.49-1.18
		c-1.1-0.4-0.79-1.03-0.4-2.55l1.83-6.81l-6.98,1.51c-0.68,0.11-1.13-0.34-1.24-0.76l-0.89-3.2l-5.53,6.31
		c-0.78,1.01-2.37,1.01-1.87-1.33l2.35-12.78l-3.16,1.67c-0.89,0.5-1.78,0.6-2.27-0.31L63,9.34z"/>
</g>
</svg>
