<?xml version="1.0" encoding="utf-8"?>
<!-- Generator: Adobe Illustrator 15.0.2, SVG Export Plug-In . SVG Version: 6.00 Build 0)  -->
<!DOCTYPE svg PUBLIC "-//W3C//DTD SVG 1.1//EN" "http://www.w3.org/Graphics/SVG/1.1/DTD/svg11.dtd">
<svg version="1.1" id="Layer_1" xmlns="http://www.w3.org/2000/svg" xmlns:xlink="http://www.w3.org/1999/xlink" x="0px" y="0px"
	 width="126px" height="72px" viewBox="0 0 126 72" enable-background="new 0 0 126 72" xml:space="preserve">
<g>
	<rect y="66.46" fill="#CA1F26" width="126" height="5.54"/>
	<rect y="60.93" fill="#FFFFFF" width="126" height="5.53"/>
	<rect y="55.39" fill="#CA1F26" width="126" height="5.54"/>
	<rect y="49.86" fill="#FFFFFF" width="126" height="5.53"/>
	<rect y="44.31" fill="#CA1F26" width="126" height="5.55"/>
	<rect y="38.78" fill="#FFFFFF" width="126" height="5.53"/>
	<rect y="33.23" fill="#CA1F26" width="126" height="5.55"/>
	<rect y="27.7" fill="#FFFFFF" width="126" height="5.53"/>
	<rect y="22.16" fill="#CA1F26" width="126" height="5.54"/>
	<rect y="16.62" fill="#FFFFFF" width="126" height="5.54"/>
	<rect y="11.09" fill="#CA1F26" width="126" height="5.53"/>
	<rect y="5.55" fill="#FFFFFF" width="126" height="5.54"/>
	<rect fill="#CA1F26" width="126" height="5.54"/>
	<rect fill="#29345F" width="57.54" height="38.78"/>
	<polygon fill="#FFFFFF" points="5.2,4.28 5.69,5.75 7.27,5.75 5.99,6.65 6.48,8.12 5.2,7.21 3.92,8.12 4.42,6.65 3.14,5.75 
		4.7,5.75 	"/>
	<polygon fill="#FFFFFF" points="5.2,10.75 5.69,12.21 7.27,12.21 5.99,13.11 6.48,14.59 5.2,13.68 3.92,14.59 4.42,13.11 
		3.14,12.21 4.7,12.21 	"/>
	<polygon fill="#FFFFFF" points="5.2,17.23 5.69,18.69 7.27,18.69 5.99,19.59 6.48,21.06 5.2,20.15 3.92,21.06 4.42,19.59 
		3.14,18.69 4.7,18.69 	"/>
	<polygon fill="#FFFFFF" points="5.2,23.69 5.69,25.16 7.27,25.16 5.99,26.07 6.48,27.53 5.2,26.62 3.92,27.53 4.42,26.07 
		3.14,25.16 4.7,25.16 	"/>
	<polygon fill="#FFFFFF" points="5.2,30.16 5.69,31.63 7.27,31.63 5.99,32.53 6.48,34 5.2,33.1 3.92,34 4.42,32.53 3.14,31.63 
		4.7,31.63 	"/>
	<polygon fill="#FFFFFF" points="9.8,7.69 10.27,9.16 11.85,9.16 10.58,10.06 11.07,11.53 9.8,10.62 8.53,11.53 9.01,10.06 
		7.74,9.16 9.32,9.16 	"/>
	<polygon fill="#FFFFFF" points="9.8,14.16 10.27,15.62 11.85,15.62 10.58,16.53 11.07,18 9.8,17.09 8.53,18 9.01,16.53 7.74,15.62 
		9.32,15.62 	"/>
	<polygon fill="#FFFFFF" points="9.8,20.63 10.27,22.1 11.85,22.1 10.58,23 11.07,24.47 9.8,23.56 8.53,24.47 9.01,23 7.74,22.1 
		9.32,22.1 	"/>
	<polygon fill="#FFFFFF" points="9.8,27.11 10.27,28.57 11.85,28.57 10.58,29.47 11.07,30.94 9.8,30.02 8.53,30.94 9.01,29.47 
		7.74,28.57 9.32,28.57 	"/>
	<polygon fill="#FFFFFF" points="14.45,4.28 14.95,5.75 16.52,5.75 15.24,6.65 15.73,8.12 14.45,7.21 13.19,8.12 13.68,6.65 
		12.4,5.75 13.97,5.75 	"/>
	<polygon fill="#FFFFFF" points="14.45,10.75 14.95,12.21 16.52,12.21 15.24,13.11 15.73,14.59 14.45,13.68 13.19,14.59 
		13.68,13.11 12.4,12.21 13.97,12.21 	"/>
	<polygon fill="#FFFFFF" points="14.45,17.23 14.95,18.69 16.52,18.69 15.24,19.59 15.73,21.06 14.45,20.15 13.19,21.06 
		13.68,19.59 12.4,18.69 13.97,18.69 	"/>
	<polygon fill="#FFFFFF" points="14.45,23.69 14.95,25.16 16.52,25.16 15.24,26.07 15.73,27.53 14.45,26.62 13.19,27.53 
		13.68,26.07 12.4,25.16 13.97,25.16 	"/>
	<polygon fill="#FFFFFF" points="14.45,30.16 14.95,31.63 16.52,31.63 15.24,32.53 15.73,34 14.45,33.1 13.19,34 13.68,32.53 
		12.4,31.63 13.97,31.63 	"/>
	<polygon fill="#FFFFFF" points="19.05,7.69 19.54,9.16 21.12,9.16 19.84,10.06 20.33,11.53 19.05,10.62 17.79,11.53 18.28,10.06 
		17,9.16 18.57,9.16 	"/>
	<polygon fill="#FFFFFF" points="19.05,14.16 19.54,15.62 21.12,15.62 19.84,16.53 20.33,18 19.05,17.09 17.79,18 18.28,16.53 
		17,15.62 18.57,15.62 	"/>
	<polygon fill="#FFFFFF" points="19.05,20.63 19.54,22.1 21.12,22.1 19.84,23 20.33,24.47 19.05,23.56 17.79,24.47 18.28,23 
		17,22.1 18.57,22.1 	"/>
	<polygon fill="#FFFFFF" points="19.05,27.11 19.54,28.57 21.12,28.57 19.84,29.47 20.33,30.94 19.05,30.02 17.79,30.94 
		18.28,29.47 17,28.57 18.57,28.57 	"/>
	<polygon fill="#FFFFFF" points="23.72,4.28 24.21,5.75 25.77,5.75 24.5,6.65 25,8.12 23.72,7.21 22.44,8.12 22.93,6.65 21.67,5.75 
		23.23,5.75 	"/>
	<polygon fill="#FFFFFF" points="23.72,10.75 24.21,12.21 25.77,12.21 24.5,13.11 25,14.59 23.72,13.68 22.44,14.59 22.93,13.11 
		21.67,12.21 23.23,12.21 	"/>
	<polygon fill="#FFFFFF" points="23.72,17.23 24.21,18.69 25.77,18.69 24.5,19.59 25,21.06 23.72,20.15 22.44,21.06 22.93,19.59 
		21.67,18.69 23.23,18.69 	"/>
	<polygon fill="#FFFFFF" points="23.72,23.69 24.21,25.16 25.77,25.16 24.5,26.07 25,27.53 23.72,26.62 22.44,27.53 22.93,26.07 
		21.67,25.16 23.23,25.16 	"/>
	<polygon fill="#FFFFFF" points="23.72,30.16 24.21,31.63 25.77,31.63 24.5,32.53 25,34 23.72,33.1 22.44,34 22.93,32.53 
		21.67,31.63 23.23,31.63 	"/>
	<polygon fill="#FFFFFF" points="28.32,7.69 28.81,9.16 30.38,9.16 29.11,10.06 29.58,11.53 28.32,10.62 27.05,11.53 27.53,10.06 
		26.27,9.16 27.83,9.16 	"/>
	<polygon fill="#FFFFFF" points="28.32,14.16 28.81,15.62 30.38,15.62 29.11,16.53 29.58,18 28.32,17.09 27.05,18 27.53,16.53 
		26.27,15.62 27.83,15.62 	"/>
	<polygon fill="#FFFFFF" points="28.32,20.63 28.81,22.1 30.38,22.1 29.11,23 29.58,24.47 28.32,23.56 27.05,24.47 27.53,23 
		26.27,22.1 27.83,22.1 	"/>
	<polygon fill="#FFFFFF" points="28.32,27.11 28.81,28.57 30.38,28.57 29.11,29.47 29.58,30.94 28.32,30.02 27.05,30.94 
		27.53,29.47 26.27,28.57 27.83,28.57 	"/>
	<polygon fill="#FFFFFF" points="32.97,4.28 33.46,5.75 35.03,5.75 33.76,6.65 34.25,8.12 32.97,7.21 31.71,8.12 32.18,6.65 
		30.91,5.75 32.49,5.75 	"/>
	<polygon fill="#FFFFFF" points="32.97,10.75 33.46,12.21 35.03,12.21 33.76,13.11 34.25,14.59 32.97,13.68 31.71,14.59 
		32.18,13.11 30.91,12.21 32.49,12.21 	"/>
	<polygon fill="#FFFFFF" points="32.97,17.23 33.46,18.69 35.03,18.69 33.76,19.59 34.25,21.06 32.97,20.15 31.71,21.06 
		32.18,19.59 30.91,18.69 32.49,18.69 	"/>
	<polygon fill="#FFFFFF" points="32.97,23.69 33.46,25.16 35.03,25.16 33.76,26.07 34.25,27.53 32.97,26.62 31.71,27.53 
		32.18,26.07 30.91,25.16 32.49,25.16 	"/>
	<polygon fill="#FFFFFF" points="32.97,30.16 33.46,31.63 35.03,31.63 33.76,32.53 34.25,34 32.97,33.1 31.71,34 32.18,32.53 
		30.91,31.63 32.49,31.63 	"/>
	<polygon fill="#FFFFFF" points="37.58,7.69 38.06,9.16 39.64,9.16 38.37,10.06 38.85,11.53 37.58,10.62 36.31,11.53 36.8,10.06 
		35.52,9.16 37.1,9.16 	"/>
	<polygon fill="#FFFFFF" points="37.58,14.16 38.06,15.62 39.64,15.62 38.37,16.53 38.85,18 37.58,17.09 36.31,18 36.8,16.53 
		35.52,15.62 37.1,15.62 	"/>
	<polygon fill="#FFFFFF" points="37.58,20.63 38.06,22.1 39.64,22.1 38.37,23 38.85,24.47 37.58,23.56 36.31,24.47 36.8,23 
		35.52,22.1 37.1,22.1 	"/>
	<polygon fill="#FFFFFF" points="37.58,27.11 38.06,28.57 39.64,28.57 38.37,29.47 38.85,30.94 37.58,30.02 36.31,30.94 36.8,29.47 
		35.52,28.57 37.1,28.57 	"/>
	<polygon fill="#FFFFFF" points="42.23,4.28 42.73,5.75 44.3,5.75 43.03,6.65 43.5,8.12 42.23,7.21 40.98,8.12 41.45,6.65 
		40.18,5.75 41.75,5.75 	"/>
	<polygon fill="#FFFFFF" points="42.23,10.75 42.73,12.21 44.3,12.21 43.03,13.11 43.5,14.59 42.23,13.68 40.98,14.59 41.45,13.11 
		40.18,12.21 41.75,12.21 	"/>
	<polygon fill="#FFFFFF" points="42.23,17.23 42.73,18.69 44.3,18.69 43.03,19.59 43.5,21.06 42.23,20.15 40.98,21.06 41.45,19.59 
		40.18,18.69 41.75,18.69 	"/>
	<polygon fill="#FFFFFF" points="42.23,23.69 42.73,25.16 44.3,25.16 43.03,26.07 43.5,27.53 42.23,26.62 40.98,27.53 41.45,26.07 
		40.18,25.16 41.75,25.16 	"/>
	<polygon fill="#FFFFFF" points="42.23,30.16 42.73,31.63 44.3,31.63 43.03,32.53 43.5,34 42.23,33.1 40.98,34 41.45,32.53 
		40.18,31.63 41.75,31.63 	"/>
	<polygon fill="#FFFFFF" points="46.85,7.69 47.32,9.16 48.9,9.16 47.63,10.06 48.1,11.53 46.85,10.62 45.56,11.53 46.05,10.06 
		44.79,9.16 46.35,9.16 	"/>
	<polygon fill="#FFFFFF" points="46.85,14.16 47.32,15.62 48.9,15.62 47.63,16.53 48.1,18 46.85,17.09 45.56,18 46.05,16.53 
		44.79,15.62 46.35,15.62 	"/>
	<polygon fill="#FFFFFF" points="46.85,20.63 47.32,22.1 48.9,22.1 47.63,23 48.1,24.47 46.85,23.56 45.56,24.47 46.05,23 
		44.79,22.1 46.35,22.1 	"/>
	<polygon fill="#FFFFFF" points="46.85,27.11 47.32,28.57 48.9,28.57 47.63,29.47 48.1,30.94 46.85,30.02 45.56,30.94 46.05,29.47 
		44.79,28.57 46.35,28.57 	"/>
	<polygon fill="#FFFFFF" points="51.49,4.28 51.99,5.75 53.55,5.75 52.28,6.65 52.77,8.12 51.49,7.21 50.23,8.12 50.7,6.65 
		49.44,5.75 51,5.75 	"/>
	<polygon fill="#FFFFFF" points="51.49,10.75 51.99,12.21 53.55,12.21 52.28,13.11 52.77,14.59 51.49,13.68 50.23,14.59 50.7,13.11 
		49.44,12.21 51,12.21 	"/>
	<polygon fill="#FFFFFF" points="51.49,17.23 51.99,18.69 53.55,18.69 52.28,19.59 52.77,21.06 51.49,20.15 50.23,21.06 50.7,19.59 
		49.44,18.69 51,18.69 	"/>
	<polygon fill="#FFFFFF" points="51.49,23.69 51.99,25.16 53.55,25.16 52.28,26.07 52.77,27.53 51.49,26.62 50.23,27.53 50.7,26.07 
		49.44,25.16 51,25.16 	"/>
	<polygon fill="#FFFFFF" points="51.49,30.16 51.99,31.63 53.55,31.63 52.28,32.53 52.77,34 51.49,33.1 50.23,34 50.7,32.53 
		49.44,31.63 51,31.63 	"/>
</g>
</svg>
