<?xml version="1.0" encoding="utf-8"?>
<!-- Generator: Adobe Illustrator 15.0.2, SVG Export Plug-In . SVG Version: 6.00 Build 0)  -->
<!DOCTYPE svg PUBLIC "-//W3C//DTD SVG 1.1//EN" "http://www.w3.org/Graphics/SVG/1.1/DTD/svg11.dtd">
<svg version="1.1" id="Layer_1" xmlns="http://www.w3.org/2000/svg" xmlns:xlink="http://www.w3.org/1999/xlink" x="0px" y="0px"
	 width="126px" height="72px" viewBox="0 0 126 72" enable-background="new 0 0 126 72" xml:space="preserve">
<g>
	<rect x="0.01" fill="#2B297A" width="125.99" height="72"/>
	<polygon fill="#FFFFFF" points="33.14,44.11 35.07,49.96 40.92,47.78 37.48,52.9 42.84,56.03 36.61,56.56 37.48,62.63 33.14,58.19 
		28.84,62.63 29.7,56.56 23.45,56.03 28.84,52.9 25.37,47.78 31.24,49.96 	"/>
	<polygon fill="#FFFFFF" points="99.43,54.63 100.36,57.41 103.15,56.38 101.5,58.81 104.06,60.31 101.08,60.56 101.5,63.44 
		99.43,61.33 97.39,63.44 97.8,60.56 94.83,60.31 97.39,58.81 95.75,56.38 98.54,57.41 	"/>
	<polygon fill="#FFFFFF" points="82.87,28.92 83.79,31.7 86.57,30.67 84.93,33.11 87.49,34.6 84.51,34.84 84.93,37.74 82.87,35.62 
		80.81,37.74 81.22,34.84 78.26,34.6 80.81,33.11 79.17,30.67 81.95,31.7 	"/>
	<polygon fill="#FFFFFF" points="99.43,11.33 100.36,14.12 103.15,13.09 101.5,15.52 104.06,17.01 101.08,17.27 101.5,20.15 
		99.43,18.04 97.39,20.15 97.8,17.27 94.83,17.01 97.39,15.52 95.75,13.09 98.54,14.12 	"/>
	<polygon fill="#FFFFFF" points="114.18,24.6 115.09,27.38 117.89,26.34 116.23,28.77 118.8,30.26 115.82,30.52 116.24,33.42 
		114.18,31.29 112.12,33.42 112.54,30.52 109.57,30.26 112.12,28.77 110.48,26.34 113.27,27.38 	"/>
	<polygon fill="#FFFFFF" points="106.07,37.62 106.79,39.35 108.7,39.49 107.25,40.7 107.69,42.52 106.07,41.53 104.46,42.52 
		104.91,40.7 103.44,39.49 105.36,39.35 	"/>
	<polygon fill="#FFFFFF" points="27.63,0 27.63,10.83 0.01,10.83 0.01,21.65 27.63,21.65 27.63,32.47 38.67,32.47 38.67,21.65 
		66.31,21.65 66.31,10.83 38.67,10.83 38.67,0 	"/>
	<polygon fill="#FFFFFF" points="0.01,0 0.01,3.64 58.89,32.47 66.29,32.47 66.29,28.84 7.42,0 	"/>
	<polygon fill="#FFFFFF" points="58.89,0 0,28.84 0,32.47 7.42,32.47 66.29,3.64 66.29,0 	"/>
	<polygon fill="#E81C24" points="29.83,0 29.83,12.99 0.01,12.99 0.01,19.49 29.83,19.49 29.83,32.47 36.46,32.47 36.46,19.49 
		66.29,19.49 66.29,12.99 36.46,12.99 36.46,0 	"/>
	<path fill-rule="evenodd" clip-rule="evenodd" fill="#E81C24" d="M61.35,0L39.26,10.83h4.94L66.29,0H61.35z M0.01,0v2.43l17.14,8.4
		h4.96L0.01,0z"/>
	<path fill-rule="evenodd" clip-rule="evenodd" fill="#E81C24" d="M44.2,21.65l22.1,10.83v-2.43l-17.16-8.4H44.2z M22.1,21.65
		L0.01,32.48h4.94l22.09-10.83H22.1z"/>
</g>
</svg>
