<?xml version="1.0" encoding="utf-8"?>
<!-- Generator: Adobe Illustrator 15.0.2, SVG Export Plug-In . SVG Version: 6.00 Build 0)  -->
<!DOCTYPE svg PUBLIC "-//W3C//DTD SVG 1.1//EN" "http://www.w3.org/Graphics/SVG/1.1/DTD/svg11.dtd">
<svg version="1.1" id="Layer_1" xmlns="http://www.w3.org/2000/svg" xmlns:xlink="http://www.w3.org/1999/xlink" x="0px" y="0px"
	 width="126px" height="72px" viewBox="0 0 126 72" enable-background="new 0 0 126 72" xml:space="preserve">
<g>
	<rect fill="#000101" width="126" height="23.99"/>
	<rect y="23.99" fill="#E01E25" width="126" height="24.01"/>
	<rect y="48" fill="#F6D826" width="126" height="24"/>
	<path fill="#F5D626" d="M45.57,17.04v28.81c0,10.8,14.79,9.5,17.43,13.81c2.64-4.31,17.45-3.01,17.45-13.81V17.04H45.57z"/>
	<path fill-rule="evenodd" clip-rule="evenodd" fill="#000101" d="M45.67,17.15v28.7c0,6.81,5.85,8.73,11.01,10.4
		c2.83,0.92,5.28,1.71,6.32,3.22c1.04-1.51,3.5-2.3,6.33-3.22c5.15-1.67,11-3.59,11-10.4v-28.7H45.67z M63,59.88l-0.09-0.17
		c-0.94-1.52-3.42-2.32-6.3-3.26c-4.96-1.61-11.16-3.63-11.16-10.6V16.94h35.1v28.91c0,6.97-6.18,8.99-11.16,10.6
		c-2.87,0.94-5.36,1.74-6.3,3.26L63,59.88z"/>
	<path fill="#000101" d="M61.85,21.19c0.18,0.84-0.17,2.91-0.61,3.62c-0.44,0.68-1.59,1.97-1.67,3.27
		C59.13,34.56,61.6,43.96,63,50.69c1.41-6.73,3.88-16.13,3.43-22.61c-0.43-6.47-1.31-8.2-1.31-8.2L61.85,21.19z"/>
	<path fill="#C91F26" d="M62.2,22.14c-1.63-0.13-3.01-0.45-4.14-0.95c0.47,0.57,1.54,1.03,3.18,1.37L62.2,22.14z"/>
	<path fill="#000101" d="M61.25,22.51c-1.67-0.25-2.75-0.71-3.23-1.29c1.18,0.42,2.56,0.74,4.19,0.85v0.11
		c-1.65-0.12-3.04-0.43-4.17-0.96C58.57,21.7,59.63,22.17,61.25,22.51z"/>
	<path fill="#C91F26" d="M61.68,18.59c-2.64-1.29-4.23,0.17-2.47,2.51c0.18-0.43,1.84-1.05,2.64,1.03c-0.4,0.23-1.38,0.26-2.89,0.09
		c0.78,0.59,3.17,0.68,3.6,0.43c0.44-0.26-0.79-2.42-0.79-2.42L61.68,18.59z"/>
	<path fill="#000101" d="M61.55,22.83c-0.89,0-2.1-0.17-2.64-0.58c1.56,0.08,2.53,0.06,2.92-0.17c-0.5-1.16-1.26-1.35-1.66-1.36
		h-0.01c-0.48,0-0.83,0.22-0.89,0.4c-0.9-1.04-1.07-2.03-0.58-2.6c0.54-0.64,1.69-0.62,3.01,0.02l-0.04,0.1
		c-1.26-0.61-2.39-0.64-2.88-0.05c-0.47,0.53-0.28,1.46,0.47,2.46c0-0.21,0.45-0.44,0.92-0.44c0.44,0.01,1.25,0.21,1.74,1.5
		c-0.45,0.3-1.41,0.33-2.97,0.15c0.81,0.5,3.16,0.59,3.59,0.33c0.29-0.17-0.35-1.51-0.81-2.33c0.3,0.31,1.34,2.16,0.87,2.44
		C62.43,22.78,62.03,22.83,61.55,22.83z"/>
	<path fill="#000101" d="M64.94,20.4c0.45-0.09,1.14-0.35,1.67-0.85c-0.96,0-2.73-0.53-3.44-0.87c-0.7-0.35-1.93-1.12-1.93,0.34
		c0,1.47,1.59,2.59,1.32,3.79L64.94,20.4z"/>
	<path fill="#F0F6FB" d="M62.74,19.45c0,0-0.88-0.43-1.06-0.6c-0.17-0.17-0.44,0.95,0.35,1.3C62.15,19.85,62.39,19.63,62.74,19.45z"
		/>
	<path fill="#000101" d="M62.13,18.93c-0.43,0.12-0.51,0.43-0.28,0.95c0.07-0.39,0.35-0.65,0.89-0.78L62.13,18.93z"/>
	<path fill="#000101" d="M66.87,30.67v10.18l11.8,9.49V25.06c0-1.95-0.4-3.27-1.22-3.96v5.26L66.87,30.67z"/>
	<rect x="68.92" y="27.65" fill="#F5D626" width="0.33" height="21.57"/>
	<rect x="71.38" y="27.65" fill="#F5D626" width="0.33" height="21.57"/>
	<rect x="73.85" y="27.65" fill="#F5D626" width="0.33" height="21.57"/>
	<rect x="76.31" y="27.65" fill="#F5D626" width="0.33" height="21.57"/>
	<path fill="#000101" d="M64.58,32.57c7.93,0,11.28-2.5,12.96-4.4v-6.98c0.87-0.25,1.35-0.88,1.41-1.91
		c-2.47,1.99-6.35-2.67-8.64,2.16c1.24,2.41,3.7,2.16,4.58,0.78c1.77,1.46,0.36,6.98-10.31,6.9V32.57z"/>
	<path fill="#C91F26" d="M67.49,49.47c-0.61,0.79-0.08,1.48,0.45,1.74c-0.19-0.52-0.09-1,0.26-1.46L67.49,49.47z"/>
	<path fill="#000101" d="M67.98,51.2c-0.35-0.09-0.7-0.38-0.8-0.79c-0.07-0.31,0.02-0.65,0.27-0.96l0.08,0.07
		c-0.22,0.29-0.31,0.58-0.24,0.87c0.09,0.37,0.4,0.65,0.67,0.77c-0.26-0.47-0.17-0.98,0.19-1.46C67.9,50.22,67.82,50.69,67.98,51.2z
		"/>
	<path fill="#C91F26" d="M70.58,52.42c0.05,0.34-0.13,0.77-0.53,1.3c1.06-0.27,1.5-0.62,1.14-1.22L70.58,52.42z"/>
	<path fill="#000101" d="M70.06,53.76c0.35-0.58,0.52-1.01,0.46-1.33l0.11-0.02c0.06,0.36-0.12,0.81-0.54,1.33
		c0.65-0.26,1.03-0.46,1.13-0.7c0.07-0.15,0.04-0.31-0.08-0.51c0.24,0.17,0.26,0.37,0.19,0.54C71.2,53.36,70.8,53.58,70.06,53.76z"
		/>
	<path fill="#C91F26" d="M74.09,51.12c0.19,0.41,0.21,0.87,0.1,1.39c0.79-0.7,1.06-1.64,0.44-1.82L74.09,51.12z"/>
	<path fill="#000101" d="M74.23,52.54c0.02-0.55-0.01-1.02-0.19-1.4l0.11-0.04c0.19,0.41,0.21,0.89,0.09,1.42
		c0.43-0.51,0.75-1.11,0.66-1.48c-0.03-0.16-0.13-0.26-0.29-0.3c0.23-0.05,0.36,0.08,0.4,0.27C75.11,51.42,74.78,52.05,74.23,52.54z
		"/>
	<path fill="#C91F26" d="M74.01,48.01c0.3,0.07,0.59,0.34,0.88,0.87c0.09-0.95-0.08-1.47-0.97-1.64L74.01,48.01z"/>
	<path fill="#000101" d="M74.94,48.88c-0.38-0.47-0.66-0.76-0.94-0.82l0.02-0.1c0.32,0.06,0.63,0.36,0.92,0.89
		c0-1-0.25-1.41-1.03-1.56C74.89,47.37,75.03,47.97,74.94,48.88z"/>
	<path fill="#C91F26" d="M66.26,45.17l4.15,3.71c0,0-1.59,0.34-2.21,0.34c-0.62,0-1.14,0.17-0.97,0.35
		c0.18,0.17,0.52,0.17,0.71,0.42c0.16,0.27,0.44,0.62,0.78,0.27c0.36-0.34,1.59-0.69,1.59-0.69s0,1.99-0.09,2.24
		c-0.09,0.26-0.35,0.77-0.17,0.77c0.17,0,0.17-0.08,0.88,0c0.7,0.1,0.62,0.27,0.44-0.77c-0.18-1.03-0.09-2.15-0.09-2.15
		s1.59,1.03,2.12,1.72c0.52,0.69,0.44,0.18,0.7-0.09c0.26-0.25,0.61-0.34,0.88-0.43c0.27-0.08-0.71-0.35-0.97-0.52
		c-0.27-0.17-2.29-1.29-2.29-1.29s1.15-0.34,1.85-0.44c0.7-0.08,0.7-0.08,0.62-0.42c-0.09-0.35,0-0.7,0-0.87
		c0-0.16-0.09-0.34-0.53,0c-0.44,0.35-2.47,1.21-2.47,1.21l-3.44-4.48L66.26,45.17z"/>
	<path fill="#000101" d="M71.4,52.71c-0.05,0-0.12-0.01-0.2-0.02l-0.28-0.04c-0.49-0.06-0.64-0.04-0.74-0.03l-0.22-0.02
		c-0.06-0.09,0.01-0.28,0.13-0.58l0.08-0.22c0.07-0.2,0.09-1.67,0.09-2.23c-0.06,0.09-1.17,0.42-1.5,0.74
		c-0.1,0.1-0.22,0.16-0.36,0.14c-0.21-0.01-0.37-0.22-0.51-0.41c-0.09-0.14-0.24-0.2-0.38-0.26c-0.13-0.05-0.24-0.09-0.32-0.17
		l-0.03-0.03l-0.01-0.13c0.08-0.18,0.6-0.28,1.05-0.28c0.6,0,2.17-0.34,2.19-0.34l-4.17-3.62l0.08-0.08l4.14,3.71
		c-0.09,0.1-1.63,0.44-2.24,0.44c-0.53,0-0.91,0.13-0.95,0.21c0.08,0.1,0.18,0.15,0.29,0.19c0.15,0.06,0.33,0.12,0.44,0.29
		c0.12,0.19,0.27,0.36,0.43,0.37c0.1,0.02,0.19-0.03,0.28-0.12c0.35-0.36,1.55-0.69,1.61-0.7c0.06,0.13,0.06,2.04-0.02,2.32
		l-0.09,0.21c-0.06,0.14-0.18,0.44-0.14,0.48c0.22-0.03,0.38-0.05,0.88,0l0.28,0.06c0.1,0.01,0.2,0.03,0.22,0.01
		c0.02-0.03,0-0.19-0.04-0.39l-0.08-0.38c-0.17-1.04-0.09-2.17-0.09-2.18c0.16,0,1.69,1.01,2.22,1.69c0.21,0.28,0.25,0.31,0.34,0.33
		c0.03,0,0.07-0.07,0.1-0.15c0.05-0.09,0.1-0.19,0.18-0.26c0.24-0.23,0.55-0.34,0.81-0.41c0.07-0.06-0.2-0.17-0.39-0.24
		c-0.19-0.08-0.4-0.16-0.49-0.22c-0.27-0.17-2.3-1.29-2.3-1.29c0.02-0.1,1.17-0.45,1.87-0.53c0.36-0.04,0.56-0.08,0.61-0.13
		c0.03-0.03,0-0.12-0.04-0.24c-0.06-0.26-0.04-0.51-0.01-0.7l0.01-0.17c-0.08-0.16-0.18-0.17-0.43,0.04
		c-0.45,0.35-2.4,1.17-2.49,1.21l-3.5-4.5l3.52,4.41c-0.01-0.03,1.97-0.87,2.39-1.21c0.23-0.18,0.4-0.24,0.51-0.19
		c0.05,0.03,0.11,0.08,0.11,0.24l-0.01,0.19c-0.02,0.17-0.05,0.42,0.01,0.66c0.04,0.15,0.07,0.25,0.01,0.33
		c-0.06,0.09-0.23,0.1-0.67,0.15c-0.64,0.09-1.67,0.39-1.82,0.44c0.21,0.01,2.03,1.03,2.28,1.21c0.1,0.05,0.3,0.13,0.48,0.21
		c0.42,0.16,0.56,0.22,0.56,0.31l-0.19,0.12c-0.24,0.08-0.53,0.16-0.75,0.38c-0.07,0.07-0.11,0.16-0.15,0.24
		c-0.06,0.1-0.11,0.2-0.2,0.21c-0.11,0.01-0.23-0.11-0.44-0.37c-0.49-0.65-1.92-1.58-2.09-1.7c0.06,0.12,0,1.16,0.17,2.09l0.06,0.39
		c0.06,0.3,0.09,0.42,0.02,0.48C71.48,52.7,71.44,52.71,71.4,52.71z"/>
	<path fill="#000101" d="M63,56.38l1.85-2.16c2.12,1.27,3.67,0.92,4.67-1.03c-3.17,0.53-4.67-2.3-4.49-8.45l2.38,3.61V45l2.9,0.35
		l-7.66-8.03L63,56.38z"/>
	<path fill="#000101" d="M59.12,30.67v10.18l-11.8,9.49V25.06c0-1.95,0.42-3.27,1.23-3.96v5.26L59.12,30.67z"/>
	<rect x="56.76" y="27.65" fill="#F5D626" width="0.33" height="21.57"/>
	<rect x="54.3" y="27.65" fill="#F5D626" width="0.32" height="21.57"/>
	<rect x="51.83" y="27.65" fill="#F5D626" width="0.32" height="21.57"/>
	<rect x="49.36" y="27.65" fill="#F5D626" width="0.33" height="21.57"/>
	<path fill="#000101" d="M61.42,32.57c-7.93,0-11.28-2.5-12.95-4.4v-6.98c-0.89-0.25-1.35-0.88-1.4-1.91
		c2.46,1.99,6.33-2.67,8.62,2.16c-1.23,2.41-3.7,2.16-4.58,0.78c-1.76,1.46-0.35,6.98,10.31,6.9V32.57z"/>
	<path fill="#C91F26" d="M58.51,49.47c0.61,0.79,0.1,1.48-0.45,1.74c0.19-0.52,0.09-1-0.25-1.46L58.51,49.47z"/>
	<path fill="#000101" d="M58.09,51.25c0.1-0.56,0.02-1.03-0.33-1.47c0.45,0.41,0.54,0.91,0.36,1.44c0.19-0.18,0.5-0.46,0.59-0.82
		c0.07-0.3-0.01-0.6-0.25-0.88l0.09-0.07c0.25,0.31,0.34,0.65,0.26,0.96C58.72,50.82,58.39,51.12,58.09,51.25z"/>
	<path fill="#C91F26" d="M55.43,52.42c-0.07,0.34,0.11,0.77,0.52,1.3c-1.06-0.27-1.49-0.62-1.15-1.22L55.43,52.42z"/>
	<path fill="#000101" d="M56,53.67c-0.8-0.09-1.2-0.31-1.32-0.59c-0.08-0.18-0.05-0.38,0.08-0.61c-0.02,0.26-0.05,0.42,0.01,0.57
		c0.12,0.25,0.5,0.45,1.19,0.61c-0.47-0.43-0.65-0.88-0.59-1.24l0.11,0.02C55.42,52.75,55.59,53.18,56,53.67z"/>
	<path fill="#C91F26" d="M51.9,51.12c-0.18,0.41-0.2,0.87-0.08,1.39c-0.79-0.7-1.06-1.64-0.45-1.82L51.9,51.12z"/>
	<path fill="#000101" d="M51.87,52.49c-0.65-0.44-0.97-1.06-0.87-1.48c0.04-0.19,0.16-0.32,0.36-0.38
		c-0.12,0.15-0.22,0.25-0.25,0.41c-0.1,0.37,0.23,0.97,0.74,1.42c-0.2-0.47-0.18-0.95,0-1.36l0.11,0.04
		C51.78,51.53,51.76,51.99,51.87,52.49z"/>
	<path fill="#C91F26" d="M51.99,48.01c-0.29,0.07-0.59,0.34-0.88,0.87c-0.08-0.95,0.09-1.47,0.98-1.64L51.99,48.01z"/>
	<path fill="#000101" d="M51.16,48.91c-0.19-0.93-0.05-1.54,0.91-1.73c-0.76,0.26-1,0.67-0.91,1.69c0.21-0.55,0.51-0.85,0.82-0.91
		l0.02,0.1C51.72,48.12,51.44,48.41,51.16,48.91z"/>
	<path fill="#C91F26" d="M59.74,45.17l-4.14,3.71c0,0,1.59,0.34,2.2,0.34c0.62,0,1.16,0.17,0.98,0.35
		c-0.18,0.17-0.53,0.17-0.71,0.42c-0.17,0.27-0.44,0.62-0.79,0.27c-0.36-0.34-1.59-0.69-1.59-0.69s0,1.99,0.09,2.24
		c0.09,0.26,0.35,0.77,0.17,0.77c-0.17,0-0.17-0.08-0.87,0c-0.72,0.1-0.62,0.27-0.45-0.77c0.17-1.03,0.09-2.15,0.09-2.15
		s-1.59,1.03-2.11,1.72c-0.53,0.69-0.44,0.18-0.71-0.09c-0.26-0.25-0.61-0.34-0.88-0.43c-0.26-0.08,0.7-0.35,0.97-0.52
		c0.26-0.17,2.29-1.29,2.29-1.29s-1.15-0.34-1.84-0.44c-0.72-0.08-0.72-0.08-0.62-0.42c0.08-0.35,0-0.7,0-0.87
		c0-0.16,0.08-0.34,0.52,0c0.44,0.35,2.46,1.21,2.46,1.21l3.45-4.48L59.74,45.17z"/>
	<path fill="#000101" d="M54.6,52.71c-0.04,0-0.08-0.01-0.11-0.04c-0.06-0.06-0.03-0.18,0.02-0.48l0.07-0.39
		c0.16-0.96,0.1-2.02,0.08-2.14c-0.05,0.14-1.51,1.1-2.01,1.75c-0.2,0.26-0.33,0.38-0.44,0.37c-0.09-0.01-0.15-0.11-0.19-0.21
		c-0.04-0.08-0.08-0.17-0.16-0.24c-0.22-0.22-0.5-0.3-0.75-0.38l-0.19-0.12c0-0.09,0.13-0.15,0.56-0.31
		c0.19-0.08,0.39-0.16,0.48-0.21c0.24-0.18,2.02-1.15,2.26-1.29c-0.18,0-1.17-0.27-1.79-0.36c-0.45-0.05-0.61-0.06-0.68-0.15
		c-0.05-0.08-0.03-0.18,0.01-0.33c0.06-0.24,0.04-0.49,0.02-0.66c-0.02-0.09-0.02-0.15-0.02-0.19c0-0.16,0.06-0.21,0.11-0.24
		c0.11-0.05,0.28,0.01,0.51,0.19c0.43,0.34,2.42,1.19,2.45,1.2l3.37-4.47l-3.35,4.56c-0.15-0.03-2.1-0.85-2.55-1.2
		c-0.25-0.21-0.35-0.2-0.38-0.19c-0.05,0.19-0.04,0.25-0.04,0.32c0.03,0.19,0.06,0.44-0.01,0.7c-0.04,0.12-0.05,0.21-0.03,0.24
		c0.04,0.05,0.24,0.09,0.6,0.13c0.7,0.08,1.84,0.43,1.85,0.43c0.02,0.1-2.01,1.22-2.27,1.39c-0.1,0.06-0.31,0.14-0.51,0.22
		c-0.17,0.07-0.46,0.18-0.48,0.23c0.36,0.08,0.67,0.19,0.91,0.42c0.08,0.07,0.13,0.17,0.18,0.26c0.03,0.08,0.07,0.15,0.11,0.15
		c0.05-0.02,0.12-0.05,0.34-0.33c0.52-0.68,2.06-1.69,2.13-1.73c0.08,0.05,0.16,1.18-0.01,2.22l-0.07,0.38
		c-0.04,0.2-0.08,0.36-0.05,0.39c0.01,0.02,0.13,0,0.23-0.01l0.27-0.06c0.51-0.05,0.66-0.03,0.76-0.01
		c0.15-0.03,0.04-0.33-0.02-0.47l-0.08-0.21c-0.09-0.28-0.09-2.19-0.09-2.27c0.12-0.04,1.32,0.29,1.68,0.65
		c0.09,0.09,0.19,0.14,0.27,0.12c0.16-0.01,0.31-0.18,0.43-0.37c0.12-0.17,0.29-0.23,0.44-0.29c0.11-0.04,0.21-0.09,0.27-0.15
		c-0.01-0.12-0.39-0.25-0.92-0.25c-0.62,0-2.15-0.34-2.22-0.36l4.12-3.79l0.07,0.08l-4.13,3.7c0.14-0.05,1.58,0.26,2.16,0.26
		c0.44,0,0.97,0.1,1.04,0.28l0.02,0.03l-0.06,0.13c-0.08,0.08-0.19,0.12-0.31,0.17c-0.15,0.06-0.29,0.12-0.39,0.26
		c-0.14,0.19-0.3,0.4-0.5,0.41c-0.13,0.02-0.25-0.04-0.37-0.14c-0.35-0.34-1.55-0.68-1.56-0.68c0.06,0.49,0.08,1.97,0.15,2.17
		l0.08,0.21c0.13,0.31,0.2,0.5,0.14,0.59l-0.23,0.02c-0.1-0.01-0.24-0.03-0.74,0.03l-0.28,0.04C54.72,52.7,54.66,52.71,54.6,52.71z"
		/>
	<path fill="#000101" d="M63,56.38l-1.85-2.16c-2.11,1.27-3.66,0.92-4.66-1.03c3.16,0.53,4.66-2.3,4.48-8.45l-2.37,3.61V45
		l-2.91,0.35l7.66-8.03L63,56.38z"/>
</g>
</svg>
