<?xml version="1.0" encoding="utf-8"?>
<!-- Generator: Adobe Illustrator 15.0.2, SVG Export Plug-In . SVG Version: 6.00 Build 0)  -->
<!DOCTYPE svg PUBLIC "-//W3C//DTD SVG 1.1//EN" "http://www.w3.org/Graphics/SVG/1.1/DTD/svg11.dtd">
<svg version="1.1" id="Layer_1" xmlns="http://www.w3.org/2000/svg" xmlns:xlink="http://www.w3.org/1999/xlink" x="0px" y="0px"
	 width="126px" height="72px" viewBox="0 0 126 72" enable-background="new 0 0 126 72" xml:space="preserve">
<g>
	<rect fill="#FFFFFF" width="126" height="72"/>
	<polygon fill="#E81C24" points="84.36,26.03 125.99,3.21 125.99,0 123.13,0 75.66,26.03 	"/>
	<polygon fill="#E81C24" points="82.4,47.41 125.99,71.31 125.99,66.53 91.11,47.41 	"/>
	<polygon fill="#E81C24" points="0,5.49 37.3,26.04 46.01,26.04 0,0.7 	"/>
	<polygon fill="#E81C24" points="44.03,47.41 0,71.58 0,72 7.96,72 52.76,47.41 	"/>
	<polygon fill="#2B297A" points="117.37,0 73.26,0 73.26,24.21 	"/>
	<polygon fill="#2B297A" points="53.78,0 9.85,0 53.78,24.21 	"/>
	<polygon fill="#2B297A" points="125.99,26.03 125.99,9.52 96.07,26.03 	"/>
	<polygon fill="#2B297A" points="125.99,63.75 125.99,47.41 96.07,47.41 	"/>
	<polygon fill="#2B297A" points="12.34,72 53.78,72 53.78,49.25 	"/>
	<polygon fill="#2B297A" points="73.26,72 114.83,72 73.26,49.25 	"/>
	<polygon fill="#2B297A" points="0,47.41 0,64.49 30.97,47.41 	"/>
	<polygon fill="#2B297A" points="0,26.03 30.97,26.03 0,8.93 	"/>
	<polygon fill="#E81C24" points="57.68,0 57.68,30.31 0,30.31 0,43.15 57.68,43.15 57.68,72 69.36,72 69.36,43.15 125.99,43.15 
		125.99,30.31 69.36,30.31 69.36,0 	"/>
</g>
</svg>
