<svg id="Layer_1" data-name="Layer 1" xmlns="http://www.w3.org/2000/svg" viewBox="0 0 258 258"><defs><style>.cls-1{fill:#fff;}</style></defs><title>machine_icon</title><circle class="cls-1" cx="129" cy="129" r="129"/><path d="M202.14,159.07V110H158.79V88.35H101.9V81.58l21.67-16.26V45h-65V65.32L80.22,81.58v6.77H45V207.56h5.42V213h5.42v-5.42H148V213h5.42v-5.42h5.42V185.89h27.09V213h5.42V185.89h5.42V213h5.42V185.61a13.54,13.54,0,0,0,0-26.54ZM64,50.42h54.18V61.26H64Zm5.42,16.26h43.34L96.48,78.87v9.48H85.64V78.87Zm84,135.46H50.42V93.77h103Zm21.68-86.7h5.41v19h-5.41Zm-16.26,0h10.84v24.39h16.25V115.44h10.84v43.35H158.79Zm40.64,65H158.79V164.21h40.64a8.13,8.13,0,0,1,0,16.26Z" transform="translate(-0.5 -0.5)"/><path d="M126.28,99.19H55.84v59.6h70.44Zm-5.42,54.18H61.26V104.61h59.6Z" transform="translate(-0.5 -0.5)"/><path d="M148,99.19H131.7v16.25H148ZM142.53,110h-5.41v-5.42h5.41Z" transform="translate(-0.5 -0.5)"/><path d="M148,120.86H131.7v16.26H148Zm-5.42,10.84h-5.41v-5.42h5.41Z" transform="translate(-0.5 -0.5)"/><path d="M148,142.54H131.7v16.25H148Zm-5.42,10.83h-5.41V148h5.41Z" transform="translate(-0.5 -0.5)"/><path d="M148,164.21H55.84v16.26H148Zm-5.42,10.84H61.26v-5.42h81.27Z" transform="translate(-0.5 -0.5)"/><rect x="55.34" y="185.39" width="10.84" height="5.41"/><rect x="71.59" y="185.39" width="10.84" height="5.41"/><rect x="87.85" y="185.39" width="10.84" height="5.41"/><rect x="104.11" y="185.39" width="10.83" height="5.41"/><rect x="120.36" y="185.39" width="10.84" height="5.41"/><rect x="136.62" y="185.39" width="10.83" height="5.41"/><path d="M91,150a21.17,21.17,0,0,0,14.62-35.84A20,20,0,0,0,91,108a19.54,19.54,0,0,0-14.4,6.1A21.41,21.41,0,0,0,70.5,129a20.87,20.87,0,0,0,6,14.79A20.09,20.09,0,0,0,91,150Zm-11.75-33.2a16,16,0,0,1,11.81-5,16.36,16.36,0,0,1,11.92,5A17.15,17.15,0,0,1,107.79,129,16.59,16.59,0,0,1,103,141a16.88,16.88,0,0,1-12,5.13,16.36,16.36,0,0,1-11.81-5.07,17.27,17.27,0,0,1-5-12.08A17.55,17.55,0,0,1,79.22,116.78Z" transform="translate(-0.5 -0.5)"/><path d="M85.44,135.49a6.15,6.15,0,0,0,5.39-3.28l-2.54-1.32a2.5,2.5,0,0,1-2.53,1.81c-1.89,0-2.75-1.6-2.75-3.72s.73-3.73,2.75-3.73A2.6,2.6,0,0,1,88,127l2.73-1.47a5.73,5.73,0,0,0-5.43-3c-3.34,0-6,2.42-6,6.51S81.83,135.49,85.44,135.49Z" transform="translate(-0.5 -0.5)"/><path d="M97.28,135.49a6.15,6.15,0,0,0,5.39-3.28l-2.54-1.32a2.5,2.5,0,0,1-2.53,1.81c-1.88,0-2.75-1.6-2.75-3.72s.73-3.73,2.75-3.73a2.62,2.62,0,0,1,2.28,1.7l2.73-1.47a5.74,5.74,0,0,0-5.44-3c-3.34,0-6,2.42-6,6.51S93.67,135.49,97.28,135.49Z" transform="translate(-0.5 -0.5)"/></svg>