<svg xmlns="http://www.w3.org/2000/svg" xmlns:xlink="http://www.w3.org/1999/xlink" version="1.1" x="0px" y="0px" viewBox="0 0 64 80" style="enable-background:new 0 0 64 64;" xml:space="preserve"><g><path d="M63,48c0-2.414-1.721-4.434-4-4.899V25H43v-8H22v-2.5l8-6V1H6v7.5l8,6V17H1v44h2v2h2v-2h34v2h2v-2h2v-8h10v10h2V53h2v10h2   V52.899C61.279,52.434,63,50.414,63,48z M49,27h2v7h-2V27z M47,27v9h6v-9h4v16H43V27H47z M28,3v4H8V3H28z M10,9h16l-6,4.5V17h-4   v-3.5L10,9z M41,59H3V19h38V59z M58,51H43v-6h15c1.654,0,3,1.346,3,3S59.654,51,58,51z"/><path d="M31,21H5v22h26V21z M29,41H7V23h22V41z"/><path d="M39,21h-6v6h6V21z M37,25h-2v-2h2V25z"/><path d="M39,29h-6v6h6V29z M37,33h-2v-2h2V33z"/><path d="M39,37h-6v6h6V37z M37,41h-2v-2h2V41z"/><path d="M39,45H5v6h34V45z M37,49H7v-2h30V49z"/><rect x="5" y="53" width="4" height="2"/><rect x="11" y="53" width="4" height="2"/><rect x="17" y="53" width="4" height="2"/><rect x="23" y="53" width="4" height="2"/><rect x="29" y="53" width="4" height="2"/><rect x="35" y="53" width="4" height="2"/><path d="M11,30c0-1.654,1.346-3,3-3s3,1.346,3,3v4c0,2.757,2.243,5,5,5s5-2.243,5-5v-2h-2v2c0,1.654-1.346,3-3,3s-3-1.346-3-3v-4   c0-2.757-2.243-5-5-5s-5,2.243-5,5v2h2V30z"/></g><text x="0" y="79" fill="#000000" font-size="5px" font-weight="bold" font-family="'Helvetica Neue', Helvetica, Arial-Unicode, Arial, Sans-serif">Created by Eucalyp</text><text x="0" y="84" fill="#000000" font-size="5px" font-weight="bold" font-family="'Helvetica Neue', Helvetica, Arial-Unicode, Arial, Sans-serif">from the Noun Project</text></svg>