<svg xmlns="http://www.w3.org/2000/svg" data-name="Layer 1" viewBox="0 0 100 125" x="0px" y="0px"><title>39 all</title><g><path d="M24.08,75.62a8.14,8.14,0,0,0,6.32-13.28l3.75-4.65a8.1,8.1,0,0,0,3.48.79A8.19,8.19,0,0,0,44,55.4l7.41,2.55a8.15,8.15,0,1,0,16-2.36l6.22-6.23A8.1,8.1,0,0,0,84,42.79a7.87,7.87,0,0,0,.1-1.23,8.15,8.15,0,1,0-14.64,4.91l-4.91,4.92c-.19-.15-.37-.29-.58-.42a8.08,8.08,0,0,0-4.39-1.29,8.19,8.19,0,0,0-6.68,3.5l-7.13-2.45c0-.13,0-.26,0-.38a8.15,8.15,0,1,0-15.29,3.93L26.18,59.6a8.15,8.15,0,1,0-2.11,16ZM75.92,38.4a3.15,3.15,0,0,1,0,6.3,3.06,3.06,0,0,1-1.6-.45,3.37,3.37,0,0,1-.61-.46,3.15,3.15,0,0,1,2.22-5.4ZM56.48,57.15a3.15,3.15,0,0,1,3.08-2.48,3.1,3.1,0,0,1,1.69.5,3.15,3.15,0,1,1-4.84,2.65A3,3,0,0,1,56.48,57.15Zm-18.85-10a3.15,3.15,0,0,1,0,6.3,3.14,3.14,0,0,1-3.15-3.15A3.15,3.15,0,0,1,37.62,47.18ZM24.08,64.32a3.18,3.18,0,0,1,2.08.78,3.16,3.16,0,1,1-2.08-.78Z"/><path d="M90,21.35H10a2.5,2.5,0,0,0-2.5,2.5v60a2.5,2.5,0,0,0,2.5,2.5H23.37l-5.14,5.14L21.77,95l8.68-8.68H69.64l8.59,8.59,3.54-3.54-5.06-5.06H90a2.5,2.5,0,0,0,2.5-2.5v-60A2.5,2.5,0,0,0,90,21.35Zm-2.5,60h-75v-55h75Z"/><rect x="20" y="13.35" width="60" height="5"/><rect x="44" y="5.26" width="12" height="5"/></g><text x="0" y="115" fill="#000000" font-size="5px" font-weight="bold" font-family="'Helvetica Neue', Helvetica, Arial-Unicode, Arial, Sans-serif">Created by Nirbhay</text><text x="0" y="120" fill="#000000" font-size="5px" font-weight="bold" font-family="'Helvetica Neue', Helvetica, Arial-Unicode, Arial, Sans-serif">from the Noun Project</text></svg>