<svg xmlns="http://www.w3.org/2000/svg" viewBox="0 0 64 80" x="0px" y="0px"><title>12-Success and Growth up</title><g data-name="12-Success and Growth up"><path d="M34,23V21h1a3,3,0,0,0,0-6H31a1,1,0,0,1,0-2h4a1,1,0,0,1,1,1h2a3,3,0,0,0-3-3H34V9H32v2H31a3,3,0,0,0,0,6h4a1,1,0,0,1,0,2H31a1,1,0,0,1-1-1H28a3,3,0,0,0,3,3h1v2Z"/><path d="M45,16A12,12,0,1,0,33,28,12,12,0,0,0,45,16ZM23,16A10,10,0,1,1,33,26,10,10,0,0,1,23,16Z"/><path d="M54,56a4,4,0,0,0-3.86,3H42V52a2,2,0,0,0-2-2H34V44H45V54H44v2h1a2,2,0,0,0,2-2V44h1a1,1,0,0,0,1-1V39a1,1,0,0,0-1-1H34V31.95a16,16,0,1,0-2,0V38H18a1,1,0,0,0-1,1v4a1,1,0,0,0,1,1h1V54a2,2,0,0,0,2,2h1V54H21V44H32v6H26a2,2,0,0,0-2,2v7H15.86a4,4,0,1,0,0,2H24a1.93,1.93,0,0,0,1.41-.55A2.14,2.14,0,0,0,26,59V52h6v4.14a4,4,0,1,0,2,0V52h6v7a2.14,2.14,0,0,0,.59,1.45A1.93,1.93,0,0,0,42,61h8.14A4,4,0,1,0,54,56ZM12,62a2,2,0,1,1,2-2A2,2,0,0,1,12,62Zm7-46A14,14,0,1,1,33,30,14,14,0,0,1,19,16ZM35,60a2,2,0,1,1-2-2A2,2,0,0,1,35,60ZM19,42V40H47v2ZM54,62a2,2,0,1,1,2-2A2,2,0,0,1,54,62Z"/></g><text x="0" y="79" fill="#000000" font-size="5px" font-weight="bold" font-family="'Helvetica Neue', Helvetica, Arial-Unicode, Arial, Sans-serif">Created by Icondesk</text><text x="0" y="84" fill="#000000" font-size="5px" font-weight="bold" font-family="'Helvetica Neue', Helvetica, Arial-Unicode, Arial, Sans-serif">from the Noun Project</text></svg>