<?xml version="1.0" encoding="utf-8"?>
<!-- Generator: Adobe Illustrator 15.0.2, SVG Export Plug-In . SVG Version: 6.00 Build 0)  -->
<!DOCTYPE svg PUBLIC "-//W3C//DTD SVG 1.1//EN" "http://www.w3.org/Graphics/SVG/1.1/DTD/svg11.dtd">
<svg version="1.1" id="Layer_1" xmlns="http://www.w3.org/2000/svg" xmlns:xlink="http://www.w3.org/1999/xlink" x="0px" y="0px"
	 width="65px" height="53px" viewBox="0 0 65 53" enable-background="new 0 0 65 53" xml:space="preserve">
<g>
	<path fill-rule="evenodd" clip-rule="evenodd" fill="#FFFFFF" d="M61.47,0c-2.03,1.25-4.55,2.84-7.55,4.8
		c-3,1.97-5.84,4.34-8.51,7.15c-2.63,2.75-4.85,5.86-6.68,9.36C36.91,24.81,36,28.67,36,32.92c0,6.02,1.19,10.86,3.59,14.55
		C41.98,51.16,45.97,53,51.55,53c3.54,0,6.34-1.19,8.39-3.56C61.97,47.06,63,44.5,63,41.75c0-3.84-1.12-6.77-3.34-8.77
		C57.44,31,54.39,30,50.52,30H46c0.38-3.39,1.03-6.16,1.95-8.28c0.93-2.13,2.32-4.2,4.16-6.24c1.91-2.07,3.78-3.75,5.62-5.03
		C59.58,9.17,62,7.66,65,5.88L61.47,0z M25.47,0c-2.03,1.25-4.55,2.84-7.55,4.8c-3,1.97-5.84,4.34-8.51,7.15
		c-2.63,2.75-4.85,5.86-6.68,9.36C0.91,24.81,0,28.67,0,32.92c0,6.02,1.19,10.86,3.59,14.55C5.98,51.16,9.97,53,15.55,53
		c3.54,0,6.34-1.19,8.39-3.56C25.97,47.06,27,44.5,27,41.75c0-3.84-1.12-6.77-3.34-8.77C21.44,31,18.39,30,14.52,30H10
		c0.38-3.39,1.05-6.17,2-8.33c0.95-2.15,2.33-4.22,4.11-6.19c1.91-2.07,3.78-3.75,5.62-5.03C23.58,9.17,26,7.66,29,5.88L25.47,0z"/>
</g>
</svg>
