<?xml version="1.0" encoding="utf-8"?>
<!-- Generator: Adobe Illustrator 15.0.2, SVG Export Plug-In . SVG Version: 6.00 Build 0)  -->
<!DOCTYPE svg PUBLIC "-//W3C//DTD SVG 1.1//EN" "http://www.w3.org/Graphics/SVG/1.1/DTD/svg11.dtd">
<svg version="1.1" id="Layer_1" xmlns="http://www.w3.org/2000/svg" xmlns:xlink="http://www.w3.org/1999/xlink" x="0px" y="0px"
	 width="162px" height="74.001px" viewBox="0 0 162 74.001" enable-background="new 0 0 162 74.001" xml:space="preserve">
<path fill-rule="evenodd" clip-rule="evenodd" fill="#FFFFFF" d="M0,37.17C0,57.69,17.21,74.18,38.35,74
	c21.04-0.19,38.01-16.82,38.01-37.17C76.36,16.49,59.39,0,38.35,0C17.21,0,0,16.64,0,37.17z M33.65,65.05V42.21l-5.07,0.02v-8.05
	l5.07-0.02v-6.19c0,0-0.47-3.22,2.74-6.08c0,0,2.02-2.3,6.11-2.35l1.17-0.04l7.3-0.02v7.32l-5.15,0.01c0,0-2.19,0.08-2.19,2.49v4.78
	l7.32-0.03l-0.59,8.11l-6.73,0.04v22.77L33.65,65.05z"/>
<path fill-rule="evenodd" clip-rule="evenodd" fill="#FFFFFF" d="M87.19,36.79c0,20.31,16.87,36.63,37.57,36.45
	C145.37,73.06,162,56.59,162,36.46C162,16.32,145.37,0,124.76,0C104.06,0,87.19,16.47,87.19,36.79z M151.25,24.59
	c-1.31,1.78-2.96,3.34-4.87,4.6l0.03,1.14c0,11.7-9.84,25.26-27.88,25.38c-5.55,0.03-10.73-1.41-15.09-3.9
	c0.77,0.08,1.55,0.11,2.35,0.11c4.62-0.03,8.86-1.48,12.23-3.88c-4.31-0.05-7.94-2.6-9.2-6.12c0.61,0.1,1.22,0.15,1.86,0.15
	c0.89-0.01,1.77-0.12,2.59-0.33c-4.5-0.79-7.9-4.37-7.9-8.68v-0.11c1.33,0.66,2.85,1.05,4.46,1.09c-2.64-1.58-4.38-4.3-4.38-7.38
	c0-1.63,0.49-3.16,1.33-4.48c4.86,5.36,12.11,8.88,20.27,9.22c-0.17-0.65-0.25-1.33-0.25-2.02c0-4.9,4.39-8.89,9.8-8.9
	c2.81-0.01,5.35,1.06,7.13,2.78c2.23-0.41,4.32-1.15,6.2-2.17c-0.72,2.07-2.27,3.81-4.29,4.91C147.62,25.78,149.5,25.3,151.25,24.59
	z"/>
</svg>
