<?xml version="1.0" encoding="utf-8"?>
<!-- Generator: Adobe Illustrator 15.0.2, SVG Export Plug-In . SVG Version: 6.00 Build 0)  -->
<!DOCTYPE svg PUBLIC "-//W3C//DTD SVG 1.1//EN" "http://www.w3.org/Graphics/SVG/1.1/DTD/svg11.dtd">
<svg version="1.1" id="Layer_1" xmlns="http://www.w3.org/2000/svg" xmlns:xlink="http://www.w3.org/1999/xlink" x="0px" y="0px"
	 width="144px" height="35px" viewBox="0 0 144 35" enable-background="new 0 0 144 35" xml:space="preserve">
<g>
	<g>
		<path fill-rule="evenodd" clip-rule="evenodd" fill="#CCCCCC" d="M44.8,23.75c-1.31-2.43-3.55-3.4-6.14-3.4
			c-3.78,0-6.79,2.72-6.79,7.33c0,4.68,2.83,7.32,6.92,7.32c2.62,0,4.85-1.46,6.09-3.69L42,29.82c-0.64,1.57-1.62,2.04-2.85,2.04
			c-2.14,0-3.11-1.8-3.11-4.18c0-2.38,0.82-4.19,3.11-4.19c0.61,0,1.85,0.34,2.57,1.91L44.8,23.75z"/>
		<path fill-rule="evenodd" clip-rule="evenodd" fill="#CCCCCC" d="M52.15,20.35c-4.27,0-7.27,2.64-7.27,7.33
			c0,4.68,3,7.32,7.27,7.32s7.27-2.64,7.27-7.32C59.42,22.99,56.42,20.35,52.15,20.35z M52.15,23.49c2.29,0,3.26,1.81,3.26,4.03
			c0,2.54-0.97,4.34-3.26,4.34s-3.27-1.8-3.27-4.18C48.88,25.3,49.86,23.49,52.15,23.49z"/>
		<path fill-rule="evenodd" clip-rule="evenodd" fill="#CCCCCC" d="M60.24,34.63h4.01v-8.65c0-1.26,0.52-2.33,2.14-2.33
			c1.54,0,1.95,0.91,1.95,2.27v8.71h4.01v-8.55c0-1.41,0.69-2.43,2.03-2.43c1.52,0,2.06,0.89,2.06,2.85v8.13h4.01V24.01
			c0-3.19-2.88-3.66-4.22-3.66c-1.59,0-3.08,0.5-4.39,1.86c-0.9-1.23-2.06-1.86-3.63-1.86c-1.23,0-2.93,0.37-3.96,1.6v-1.23h-4.01
			V34.63z"/>
		<path fill-rule="evenodd" clip-rule="evenodd" fill="#CCCCCC" d="M81.73,34.63h4.01v-8.65c0-1.26,0.51-2.33,2.13-2.33
			c1.54,0,1.96,0.91,1.96,2.27v8.71h4v-8.55c0-1.41,0.7-2.43,2.04-2.43c1.51,0,2.05,0.89,2.05,2.85v8.13h4.01V24.01
			c0-3.19-2.88-3.66-4.21-3.66c-1.6,0-3.09,0.5-4.4,1.86c-0.9-1.23-2.06-1.86-3.62-1.86c-1.24,0-2.93,0.37-3.96,1.6v-1.23h-4.01
			V34.63z"/>
		<path fill-rule="evenodd" clip-rule="evenodd" fill="#CCCCCC" d="M110.02,20.35c-4.26,0-7.27,2.64-7.27,7.33
			c0,4.68,3.01,7.32,7.27,7.32c4.27,0,7.28-2.64,7.28-7.32C117.3,22.99,114.29,20.35,110.02,20.35z M110.02,23.49
			c2.29,0,3.27,1.81,3.27,4.03c0,2.54-0.98,4.34-3.27,4.34c-2.28,0-3.26-1.8-3.26-4.18C106.76,25.3,107.74,23.49,110.02,23.49z"/>
		<path fill-rule="evenodd" clip-rule="evenodd" fill="#CCCCCC" d="M118.38,34.63h4.01v-8.65c0-1.26,0.51-2.33,2.13-2.33
			c1.54,0,1.95,0.91,1.95,2.27v8.71h4.01V24.35c0-2.09-0.9-4-4.14-4c-1.23,0-2.93,0.37-3.95,1.6v-1.23h-4.01V34.63z"/>
		<path fill-rule="evenodd" clip-rule="evenodd" fill="#CCCCCC" d="M143.87,22.37c-1.85-1.26-3.93-2.02-6.04-2.02
			c-2.77,0-5.78,1.36-5.78,4.87c0,4.94,8.09,3.21,8.09,5.39c0,1.25-1.51,1.41-2.18,1.41c-1.83,0-3.08-0.76-4.32-1.96l-2.49,2.19
			c2,1.89,3.7,2.75,6.68,2.75s6.17-1.31,6.17-4.97c0-5.21-8.1-3.24-8.1-5.62c0-0.71,0.72-1.08,1.73-1.08c1.26,0,2.98,0.53,3.77,1.49
			L143.87,22.37z"/>
		<path fill-rule="evenodd" clip-rule="evenodd" fill="#CCCCCC" d="M44.8,7.74c-1.31-2.43-3.55-3.4-6.14-3.4
			c-3.78,0-6.79,2.72-6.79,7.33c0,4.68,2.83,7.32,6.92,7.32c2.62,0,4.85-1.46,6.09-3.69L42,13.81c-0.64,1.57-1.62,2.04-2.85,2.04
			c-2.14,0-3.11-1.8-3.11-4.18s0.82-4.19,3.11-4.19c0.61,0,1.85,0.34,2.57,1.91L44.8,7.74z"/>
		<path fill-rule="evenodd" clip-rule="evenodd" fill="#CCCCCC" d="M45.78,18.62h4.01v-8.05c0-1.55,0.95-1.96,3.34-2.25l0.44-0.05
			l-0.03-3.61c-1.41,0.1-2.88,0.62-3.75,1.46V4.71h-4.01V18.62z"/>
		<path fill-rule="evenodd" clip-rule="evenodd" fill="#CCCCCC" d="M57.73,9.99c0.17-1.83,1.56-2.67,2.72-2.67
			c1.16,0,2.6,0.63,2.72,2.67H57.73z M67.18,12.5c-0.02-4.29-1.72-8.16-6.7-8.16c-4.17,0-6.71,2.83-6.71,7.74
			c0,3.93,2.46,6.91,6.71,6.91c3.05,0,5.24-1.23,6.63-3.84l-3.01-1.6c-1.16,1.67-1.85,2.46-3.34,2.46c-1.29,0-2.96-0.84-2.98-3.51
			H67.18z"/>
		<path fill-rule="evenodd" clip-rule="evenodd" fill="#CCCCCC" d="M80.24,8.37c-0.03-3.14-2.37-4.03-6.1-4.03
			c-1.85,0-5.5,0.37-5.62,4.37h3.85c0.21-1.39,0.82-1.86,2.11-1.86c1.08,0,1.9,0.45,1.9,1.49V9.5l-1.46,0.2
			c-4.37,0.63-7.02,1.81-7.02,5.16c0,2.67,1.95,4.13,4.57,4.13c1.44,0,3.45-0.71,4.12-1.8h0.05c0.02,0.47,0.1,0.96,0.25,1.43h3.71
			c-0.34-0.86-0.36-1.93-0.36-2.9V8.37z M76.38,12.82c0,2.12-1.18,3.19-2.75,3.19c-0.98,0-1.88-0.47-1.88-1.57
			c0-1.13,0.93-1.52,1.93-1.81l2.7-0.78V12.82z"/>
		<path fill-rule="evenodd" clip-rule="evenodd" fill="#CCCCCC" d="M89.67,4.97h-2.4V0.94h-4.01v4.03h-1.95v2.51h1.95v7.33
			c0,2.01,0.49,4.18,3.91,4.18c0.88,0,2.06-0.1,2.57-0.16v-3.21c-0.2,0.02-0.77,0.07-1.21,0.07c-0.72,0-1.26-0.28-1.26-1.38V7.48
			h2.4V4.97z"/>
		<path fill-rule="evenodd" clip-rule="evenodd" fill="#CCCCCC" d="M95.19,3.14V0h-4.01v3.14H95.19z M91.18,4.71v13.91h4.01V4.71
			H91.18z"/>
		<polygon fill-rule="evenodd" clip-rule="evenodd" fill="#CCCCCC" points="100.58,18.62 104.62,18.62 109.29,4.71 105.03,4.71 
			102.66,14.54 102.61,14.54 100.25,4.71 95.95,4.71 		"/>
		<path fill-rule="evenodd" clip-rule="evenodd" fill="#CCCCCC" d="M112.78,9.99c0.18-1.83,1.57-2.67,2.73-2.67
			c1.16,0,2.59,0.63,2.72,2.67H112.78z M122.24,12.5c-0.02-4.29-1.72-8.16-6.71-8.16c-4.16,0-6.7,2.83-6.7,7.74
			c0,3.93,2.46,6.91,6.7,6.91c3.06,0,5.25-1.23,6.64-3.84l-3.01-1.6c-1.16,1.67-1.85,2.46-3.34,2.46c-1.29,0-2.96-0.84-2.98-3.51
			H122.24z"/>
		<g>
			<path fill-rule="evenodd" clip-rule="evenodd" fill="#CCCCCC" d="M15.06,6.88c3.38,0,6.39,1.3,8.74,3.69
				c2.31,2.36,3.55,5.46,3.55,8.86c0,3.45-1.19,6.47-3.5,8.78c-2.44,2.43-5.57,3.73-8.79,3.73c-3.26,0-6.31-1.3-8.67-3.69
				c-2.35-2.39-3.67-5.54-3.67-8.82c0-3.31,1.32-6.46,3.67-8.9C8.7,8.14,11.68,6.88,15.06,6.88z M15.02,4.11
				c-4.13,0-7.76,1.55-10.56,4.45C1.57,11.54,0,15.4,0,19.43c0,4.08,1.53,7.85,4.41,10.79c2.89,2.94,6.65,4.54,10.61,4.54
				s7.79-1.6,10.76-4.58c2.81-2.81,4.29-6.55,4.29-10.75c0-4.15-1.48-7.93-4.33-10.83C22.86,5.66,19.14,4.11,15.02,4.11z"/>
			<path fill-rule="evenodd" clip-rule="evenodd" fill="#CCCCCC" d="M14.86,16.89c-0.85-1.58-2.3-2.21-3.98-2.21
				c-2.45,0-4.41,1.77-4.41,4.75c0,3.04,1.84,4.76,4.49,4.76c1.7,0,3.15-0.95,3.95-2.4l-1.86-0.96c-0.42,1.01-1.06,1.32-1.86,1.32
				c-1.38,0-2.01-1.17-2.01-2.72c0-1.54,0.53-2.71,2.01-2.71c0.4,0,1.21,0.22,1.67,1.24L14.86,16.89z"/>
			<path fill-rule="evenodd" clip-rule="evenodd" fill="#CCCCCC" d="M23.55,16.89c-0.85-1.58-2.3-2.21-3.99-2.21
				c-2.45,0-4.4,1.77-4.4,4.75c0,3.04,1.84,4.76,4.49,4.76c1.7,0,3.15-0.95,3.95-2.4l-1.87-0.96c-0.41,1.01-1.05,1.32-1.85,1.32
				c-1.38,0-2.02-1.17-2.02-2.72c0-1.54,0.54-2.71,2.02-2.71c0.4,0,1.2,0.22,1.67,1.24L23.55,16.89z"/>
		</g>
	</g>
</g>
</svg>
