<svg id="Layer_1" data-name="Layer 1" xmlns="http://www.w3.org/2000/svg" viewBox="0 0 258 258"><defs><style>.cls-1{fill:#fff;}</style></defs><title>data_icon</title><circle class="cls-1" cx="129" cy="129" r="129"/><path d="M142.88,150.93a5.05,5.05,0,0,0,4.44-2.74l-2.1-1.11a2.06,2.06,0,0,1-2.08,1.52c-1.55,0-2.27-1.35-2.27-3.12s.6-3.11,2.27-3.11a2.15,2.15,0,0,1,1.88,1.42l2.25-1.23a4.72,4.72,0,0,0-4.48-2.53c-2.76,0-5,2-5,5.45S139.9,150.93,142.88,150.93Z" transform="translate(-0.5 -0.5)"/><path d="M152.65,150.93a5.05,5.05,0,0,0,4.44-2.74l-2.1-1.11a2.06,2.06,0,0,1-2.08,1.52c-1.56,0-2.27-1.35-2.27-3.12s.6-3.11,2.27-3.11a2.13,2.13,0,0,1,1.87,1.42l2.25-1.23a4.7,4.7,0,0,0-4.48-2.53c-2.76,0-5,2-5,5.45S149.66,150.93,152.65,150.93Z" transform="translate(-0.5 -0.5)"/><path d="M208.56,72.09H50.44a5,5,0,0,0-4.94,5V196.76a5,5,0,0,0,4.94,5H76.87L66.71,212l7,7,17.16-17.31h77.46l17,17.13,7-7.06-10-10.09h26.27a5,5,0,0,0,4.94-5V77A5,5,0,0,0,208.56,72.09Zm-4.94,119.68H55.38V82.07H203.62v109.7Z" transform="translate(-0.5 -0.5)"/><rect x="69.71" y="55.64" width="118.58" height="9.97"/><rect x="117.14" y="39.5" width="23.72" height="9.97"/><path d="M77.7,182.24A16.87,16.87,0,0,0,89.81,177a17.28,17.28,0,0,0,4.82-12.33,17.74,17.74,0,0,0-3.68-11l5.81-7.27a16,16,0,0,0,7.36,1.81,16.87,16.87,0,0,0,12.1-5.25,17.16,17.16,0,0,0,2.11-2.65l12.27,4.26c0,.32,0,.64,0,1a17.59,17.59,0,0,0,5,12.38,16.46,16.46,0,0,0,11.92,5.2,16.87,16.87,0,0,0,12.1-5.25,17.23,17.23,0,0,0,4.83-12.33,18.83,18.83,0,0,0-.64-4.91L175,129.16a16.18,16.18,0,0,0,5.18.87,16.87,16.87,0,0,0,12.11-5.25,17.27,17.27,0,0,0,4.82-12.33A17.57,17.57,0,0,0,192.25,100a16.36,16.36,0,0,0-12.06-5.16A16,16,0,0,0,168.32,100a18,18,0,0,0-5,12.47,17.58,17.58,0,0,0,3.62,10.79l-8.61,8.7a16.31,16.31,0,0,0-10.88-4A16,16,0,0,0,135.57,133a18.81,18.81,0,0,0-1.7,2.1l-12.82-4.47v-.07a17.59,17.59,0,0,0-4.87-12.43A16.41,16.41,0,0,0,104.12,113a16,16,0,0,0-11.88,5.1,18.07,18.07,0,0,0-5,12.48,17.64,17.64,0,0,0,2.35,8.87l-6.76,8.43a16.73,16.73,0,0,0-5.13-.79,16,16,0,0,0-11.87,5.11,18,18,0,0,0-5,12.47,17.64,17.64,0,0,0,5,12.38A16.46,16.46,0,0,0,77.7,182.24Zm92.8-80a13.09,13.09,0,0,1,9.74-4.19,13.36,13.36,0,0,1,9.83,4.24,14.43,14.43,0,0,1,4,10.16,14,14,0,0,1-3.94,10.07,13.83,13.83,0,0,1-9.88,4.29,13.43,13.43,0,0,1-9.74-4.24,14.62,14.62,0,0,1-4.13-10.12A14.86,14.86,0,0,1,170.5,102.24Zm-32.75,33a13.06,13.06,0,0,1,9.74-4.19,13.38,13.38,0,0,1,9.83,4.24,14.43,14.43,0,0,1,4,10.16,14,14,0,0,1-3.95,10.07,13.81,13.81,0,0,1-9.87,4.29,13.41,13.41,0,0,1-9.74-4.24,14.58,14.58,0,0,1-4.13-10.12A14.79,14.79,0,0,1,137.75,135.27ZM94.42,120.35a13.09,13.09,0,0,1,9.74-4.19A13.42,13.42,0,0,1,114,120.4a14.48,14.48,0,0,1,4,10.17A14,14,0,0,1,114,140.63a13.77,13.77,0,0,1-9.88,4.29,13.41,13.41,0,0,1-9.74-4.24,14.61,14.61,0,0,1-4.12-10.11A14.85,14.85,0,0,1,94.42,120.35ZM68,154.45a13.05,13.05,0,0,1,9.74-4.19,13.36,13.36,0,0,1,9.83,4.24,14.43,14.43,0,0,1,4,10.16,14,14,0,0,1-3.94,10.07A13.82,13.82,0,0,1,77.75,179,13.42,13.42,0,0,1,68,174.78a14.62,14.62,0,0,1-4.13-10.12A14.84,14.84,0,0,1,68,154.45Z" transform="translate(-0.5 -0.5)"/><path d="M73.14,170.11a5.06,5.06,0,0,0,4.45-2.74l-2.1-1.11a2.06,2.06,0,0,1-2.08,1.52c-1.56,0-2.27-1.35-2.27-3.12s.6-3.12,2.27-3.12A2.14,2.14,0,0,1,75.28,163l2.25-1.23a4.72,4.72,0,0,0-4.48-2.53c-2.76,0-5,2-5,5.45S70.16,170.11,73.14,170.11Z" transform="translate(-0.5 -0.5)"/><path d="M82.91,170.11a5.05,5.05,0,0,0,4.44-2.74l-2.1-1.11a2.06,2.06,0,0,1-2.08,1.52c-1.55,0-2.27-1.35-2.27-3.12s.6-3.12,2.27-3.12A2.17,2.17,0,0,1,85.05,163l2.25-1.23a4.72,4.72,0,0,0-4.48-2.53c-2.76,0-5,2-5,5.45S79.93,170.11,82.91,170.11Z" transform="translate(-0.5 -0.5)"/><path d="M175.63,117.91a5.07,5.07,0,0,0,4.45-2.75l-2.1-1.11a2.06,2.06,0,0,1-2.08,1.52c-1.56,0-2.27-1.35-2.27-3.12s.6-3.11,2.27-3.11a2.13,2.13,0,0,1,1.87,1.42l2.25-1.23a4.71,4.71,0,0,0-4.48-2.53c-2.76,0-4.95,2-4.95,5.45S172.65,117.91,175.63,117.91Z" transform="translate(-0.5 -0.5)"/><path d="M185.4,117.91a5.06,5.06,0,0,0,4.44-2.75l-2.1-1.11a2,2,0,0,1-2.08,1.52c-1.55,0-2.27-1.35-2.27-3.12s.6-3.11,2.27-3.11a2.15,2.15,0,0,1,1.88,1.42l2.25-1.23a4.72,4.72,0,0,0-4.48-2.53c-2.76,0-4.95,2-4.95,5.45S182.42,117.91,185.4,117.91Z" transform="translate(-0.5 -0.5)"/><path d="M99.56,136a5,5,0,0,0,4.44-2.75l-2.1-1.11a2.06,2.06,0,0,1-2.08,1.52c-1.56,0-2.27-1.34-2.27-3.11s.6-3.12,2.27-3.12a2.15,2.15,0,0,1,1.88,1.42l2.25-1.23a4.73,4.73,0,0,0-4.49-2.53c-2.75,0-4.95,2-4.95,5.46S96.58,136,99.56,136Z" transform="translate(-0.5 -0.5)"/><path d="M109.32,136a5,5,0,0,0,4.45-2.75l-2.1-1.11a2.06,2.06,0,0,1-2.08,1.52c-1.56,0-2.27-1.34-2.27-3.11s.6-3.12,2.27-3.12a2.13,2.13,0,0,1,1.87,1.42l2.25-1.23a4.71,4.71,0,0,0-4.48-2.53c-2.76,0-5,2-5,5.46S106.34,136,109.32,136Z" transform="translate(-0.5 -0.5)"/></svg>